<?xml version="1.0" standalone="no"?>
<!DOCTYPE svg PUBLIC "-//W3C//DTD SVG 1.1//EN" "http://www.w3.org/Graphics/SVG/1.1/DTD/svg11.dtd" >
<svg xmlns="http://www.w3.org/2000/svg" xmlns:xlink="http://www.w3.org/1999/xlink" version="1.1">
<metadata></metadata>
<defs>
<font id="jellybelly_fontregular" horiz-adv-x="1228" >
<font-face units-per-em="2048" ascent="1638" descent="-410" />
<missing-glyph horiz-adv-x="614" />
<glyph horiz-adv-x="0" />
<glyph horiz-adv-x="682" />
<glyph unicode=" "  horiz-adv-x="614" />
<glyph unicode="&#x09;" horiz-adv-x="614" />
<glyph unicode="&#xa0;" horiz-adv-x="614" />
<glyph unicode="!" horiz-adv-x="366" d="M20 197q-5 66 40 117t112 55q66 3 117 -42t55 -112l2 -43q5 -66 -39.5 -117t-111.5 -55q-67 -3 -117 41.5t-55 110.5zM49 180q1 -10 9.5 -17t17.5 -7q10 1 17 9t5 17q0 4 0.5 11t5 25t13.5 32t29 26.5t47 14.5q22 4 22 26q-1 10 -9.5 17.5t-17.5 5.5q-41 -3 -70 -21 t-42 -41t-19.5 -45t-6.5 -37zM49 684q-3 165 0 346q2 122 10 297q3 54 43.5 90t94.5 33t88.5 -42.5t31.5 -92.5q-8 -189 -10 -289v-340q1 -54 -36 -91.5t-91 -39.5q-54 0 -92.5 37.5t-38.5 91.5zM90 1073q-2 -79 2 -190q0 -9 8 -16t17 -7q10 0 17 8t7 17q-4 110 -2 186 q0 97 13 217q1 10 -5.5 18.5t-15.5 10.5q-11 0 -19.5 -6.5t-9.5 -16.5q-12 -111 -12 -221zM96 791l2 -29q0 -9 8 -17t17 -8q10 0 17 8t7 17l-2 33q0 9 -7.5 15.5t-18.5 6.5q-23 -4 -23 -26z" />
<glyph unicode="&#x22;" />
<glyph unicode="#" horiz-adv-x="1310" d="M20 459q-6 54 28.5 95t88.5 46q49 4 127 8q39 187 51 240l-155 -10q-55 -5 -96 29t-44 87q-5 54 29 96t88 46l12 1q12 1 34 2.5t50.5 3t68 3.5t79.5 4q27 97 70 231q17 51 64.5 75t98.5 5q51 -17 75 -65t7 -99q-22 -68 -43 -141h158q47 158 68 225q17 51 64.5 75t98.5 5 q51 -17 75 -65t7 -99q-30 -93 -49 -157q20 -2 55 -6.5t48 -6.5q54 -7 86 -50t24 -97q-8 -53 -51 -85.5t-96 -23.5q-58 9 -131 15q-49 -218 -52 -234q131 -7 220 -20q54 -7 86 -50.5t24 -97.5q-7 -54 -50 -86t-97 -24q-93 15 -234 22l-45 -245q-8 -53 -51 -85.5t-96 -23.5 q-53 8 -84.5 51t-24.5 97q14 83 37 212q-28 -1 -83 -2t-81 -2l-45 -247q-8 -53 -51 -85.5t-96 -23.5q-53 8 -84.5 51t-24.5 97q12 75 35 194l-53 -4q-54 -5 -95.5 30t-44.5 89zM47 438q0 -9 8 -16.5t17 -7.5q10 0 17 7.5t7 16.5q0 5 0.5 10.5t5 21.5t13 27.5t27 21.5 t44.5 11q10 0 17.5 7t7.5 18q0 9 -8 17t-17 8q-40 -1 -69 -16.5t-42 -33t-20 -43t-7.5 -33.5t-0.5 -16zM51 932q0 -9 7.5 -17t17.5 -8q9 0 16.5 8t7.5 17v10.5t4.5 21.5t12.5 28t26.5 21t44.5 11q10 0 17.5 7t7.5 18q0 9 -7.5 16.5t-17.5 7.5q-29 0 -52.5 -8.5t-37.5 -19.5 t-24 -28t-14 -28.5t-6.5 -28.5t-2.5 -19.5v-8.5zM440 1223q-1 -10 4.5 -18.5t14.5 -10.5q10 -3 18 3t10 15q15 76 37 109q21 38 70 35q11 -2 19.5 4t9.5 16q0 11 -6.5 19t-16.5 8q-75 11 -117 -55q-28 -43 -43 -125zM506 561q0 -11 7 -18.5t17 -7.5l162 -5q10 0 17.5 8 t7.5 17q0 11 -7.5 18t-17.5 7q-47 2 -162 4q-9 0 -16.5 -7t-7.5 -16zM530 618q80 3 164 3q24 114 51 237q-108 0 -161 -2q-3 -15 -24 -103.5t-30 -134.5zM612 1063q0 -23 25 -27l162 -4q10 0 17 8t7 17q0 11 -6.5 17.5t-17.5 6.5q-47 2 -162 4q-9 0 -17 -6.5t-8 -15.5z M874 1217q-2 -9 4.5 -18.5t16.5 -10.5q9 -2 17.5 4t11.5 16q15 75 34 109q27 38 72 33q9 -1 17 5t10 15q1 10 -5.5 18.5t-15.5 10.5q-77 8 -118 -56q-24 -37 -44 -126z" />
<glyph unicode="$" horiz-adv-x="753" d="M23 430.5q11 52.5 55 83.5q44 29 96.5 18t83.5 -55q6 -9 21 -18q25 -18 63 -23q52 -11 92 10q14 8 25 23q6 6 10 18l-2 7q-3 5 -11 11.5t-23.5 15.5t-27 15.5t-36 19.5t-35.5 19q-43 22 -66 34.5t-60.5 34.5t-58.5 41.5t-45 46t-37 57.5t-18 67q-14 139 62 231l8 11 q59 67 153 96l4 100q3 40 34 67t71 25q40 -3 66.5 -32.5t23.5 -69.5l-2 -78q74 -11 138 -47.5t104 -93.5q31 -44 21 -96.5t-54 -83.5q-43 -31 -96 -21t-84 54q-18 27 -78 34q-41 3 -72 -6q-24 -7 -33 -16l-2 -4q-9 -9 -6 -35q0 -12 144 -84q62 -31 98 -51.5t78 -56.5t65 -76 q48 -82 31 -181q-13 -73 -55 -127q-39 -54 -105 -92q-53 -29 -96 -39l-2 -88q0 -40 -28 -68t-68 -28q-41 0 -70 28t-29 68l2 90q-76 17 -133 54q-59 38 -98 94q-29 44 -18 96.5zM49 424q0 -10 8 -17.5t17 -7.5q10 0 17 7t7 18q5 6 13 14q7 7 16 13t20 6q21 0 46 -25 q18 -14 34 2q7 6 6.5 16.5t-6.5 16.5q-39 39 -80 39q-19 0 -43 -12q-14 -6 -28 -23q-27 -27 -27 -47zM88 889q0 -23 25 -27q10 0 17 7t7 18q0 12 2 28q0 26 -22 29q-10 1 -17.5 -5t-9.5 -15zM111 1012q-4 -9 0.5 -18.5t13.5 -14.5q9 -3 18.5 1t12.5 13q13 38 39 64 q31 31 71 39q23 8 17 30q-7 22 -31 19q-57 -15 -92 -53q-33 -33 -49 -80zM294 1263l1 -14q1 -10 9.5 -17t19.5 -7q9 0 15.5 7t6.5 17v7t2 16t8.5 17.5t19 11t34.5 -2.5q9 -3 18 2t10 15q2 9 -4 18.5t-16 12.5q-40 10 -65 4.5t-37.5 -22t-17 -34t-4.5 -31.5zM426 393 q1 -9 10.5 -14.5t18.5 -3.5l7.5 2.5t17.5 7t24 13t22.5 20.5t17.5 27.5t5 36.5t-12 46q-4 9 -14 12.5t-19 0.5q-9 -5 -12.5 -14.5t0.5 -18.5q13 -29 0.5 -50t-31.5 -28l-19 -6q-9 -3 -14 -12.5t-2 -18.5z" />
<glyph unicode="%" horiz-adv-x="1445" d="M119 922q45 -63 112 -93l7 -2q64 -28 133 -22h2q80 5 143.5 51.5t91.5 134.5q4 8 4 27l4 18q17 111 -47 191q-48 58 -114 78q-65 22 -131 10q-125 -17 -191 -119q-97 -144 -14 -274zM281 1028q-14 21 12 62q19 28 59 34q19 3 43 -4q14 -3 25 -14q12 -15 6 -43v-12v-2 q-18 -48 -66 -52h-2q-22 -3 -45 7l-4 2q-19 6 -28 22zM355.5 123.5q19.5 -50.5 68.5 -72.5q50 -22 99 -2t71 70q33 73 88 191t199.5 394.5t257.5 446.5q30 44 20 96.5t-55 81.5q-44 29 -96.5 18t-81.5 -55q-118 -178 -260 -446t-225 -444t-83 -181q-22 -47 -2.5 -97.5z M886.5 317q-1.5 -75 37.5 -127q42 -61 112 -92q65 -27 140 -24h2q80 6 143.5 53t91.5 133q4 10 4 29l4 18q17 111 -47 191q-46 55 -114 77q-68 20 -134 11q-123 -20 -188 -119q-50 -75 -51.5 -150zM1085 297q-14 20 13 63q19 28 57 35q23 3 43 -4q21 -9 25 -14q11 -14 8 -43 v-12l-2 -3q-14 -49 -64 -53h-2q-31 0 -49 10q-18 6 -29 21z" />
<glyph unicode="&#x26;" horiz-adv-x="1345" d="M39 514q40 135 172 244l-29 37q-115 146 -108 311q3 94 49 178q43 79 113 133q123 96 280 90q166 -6 281 -127q57 -64 82 -131q29 -78 26 -159q-7 -185 -168 -336l-20 -19l117 -98q44 56 75 108q34 61 100.5 80.5t127.5 -12.5q61 -34 80.5 -100.5t-13.5 -126.5 q-31 -55 -110 -158q41 -32 84.5 -64.5t62.5 -47t19 -15.5q55 -41 64 -109.5t-32 -123.5q-41 -56 -109 -66t-124 31q-1 1 -23.5 18.5t-71.5 55t-98 75.5l-8 -6q-204 -170 -385 -170q-168 3 -285 88q-102 70 -143 178q-45 119 -6 242zM102 446q-3 -23 21 -26q9 -2 17.5 3.5 t9.5 14.5q7 51 40 102t62 76l29 25q8 6 9 15.5t-5 17.5t-15.5 9t-17.5 -5q-4 0 -34.5 -28.5t-68.5 -86.5t-47 -117zM133 1165q-3 -9 2.5 -17t14.5 -11q9 -2 18 3.5t10 14.5q5 14 17 37q4 8 0.5 17t-11.5 14q-9 4 -18 1t-14 -12q-19 -43 -19 -47zM205 1294q-14 -18 4 -32 q19 -15 33 2q43 53 98 84q70 41 158 49q10 0 17 7.5t5 16.5q-3 23 -24 23q-103 -8 -179 -55q-55 -30 -112 -95zM358 393q7 -15 23 -24q36 -25 92 -25q48 0 125 53q-42 35 -145 125l-23 -18q-61 -49 -70 -88q-6 -12 -2 -23zM408 1094q0 -8 1 -16t4 -16t5 -14t7.5 -15t8 -13.5 t10 -14t9.5 -13t10 -13.5t10 -12q30 27 44 40.5t32.5 42.5t19.5 54q2 46 -37.5 62.5t-80.5 -5.5t-43 -67zM416 283q-3 -9 2.5 -17.5t15.5 -9.5q55 -12 127 10q62 22 105 68q6 8 5 17.5t-9 15.5q-6 6 -16.5 5.5t-16.5 -7.5q-26 -33 -84 -54q-52 -17 -103 -10q-9 3 -17 -2.5 t-9 -15.5zM492 917q-3 -11 2 -18q15 -19 32 -6q69 43 103 98q36 54 24 111q-1 9 -9 14.5t-17 3.5t-14.5 -9.5t-4.5 -16.5q5 -35 -20 -78q-22 -39 -86 -84q-7 -4 -10 -15zM928 682q-8 -23 12 -33q9 -3 18.5 1t12.5 12q18 45 53 63q30 17 72 8q9 -3 17 2.5t11 14.5 q2 10 -3 18.5t-15 9.5q-58 14 -105 -12q-47 -25 -73 -84z" />
<glyph unicode="'" horiz-adv-x="409" d="M63 1636q-6 -39 17.5 -71.5t62.5 -38.5q4 -1 13 20q0 -3 -29 -67l-4 -11q-17 -35 -3.5 -72.5t48.5 -54.5q37 -19 74.5 -5.5t54.5 50.5l4 9q38 82 45 121q12 81 -26 131.5t-146 68.5q-40 6 -72.5 -18t-38.5 -62z" />
<glyph unicode="(" horiz-adv-x="550" d="M115 442q-106 455 120 866q17 30 35 60q30 45 82 57.5t97 -16.5q46 -28 58.5 -80t-15.5 -98q-54 -87 -88.5 -178t-47.5 -171t-14 -158.5t10.5 -144.5t27 -125.5t35.5 -105t36 -78.5t27 -50l11 -17q29 -46 18.5 -98.5t-54.5 -81.5q-44 -31 -97 -20.5t-84 54.5l-2 3 q-105 166 -155 382zM182 1090q-3 -9 0.5 -19t12.5 -14q21 -10 32 12q7 18 15 43q2 11 -3 20.5t-14 12.5q-22 6 -30 -17zM223 1210q-3 -9 1.5 -18t13.5 -12q9 -4 18 -0.5t12 12.5q4 9 13.5 28.5t13.5 28.5q23 41 29 51q22 34 48.5 38.5t41.5 -7.5l16 -12q18 -19 35 -2t0 35 q-4 4 -11.5 10t-29 17t-42.5 12.5t-48.5 -13.5t-50.5 -51q-4 -6 -31 -55q-21 -42 -29 -62zM268 115q14 -33 37 -52t46 -22.5t44 -1.5t34 6.5t13 5.5q9 3 13.5 12.5t1.5 18.5q-11 21 -33 14q-3 -1 -8.5 -3t-21 -4.5t-29 0t-28.5 13.5t-24 31q-3 9 -12 13t-18 1 q-22 -11 -15 -32z" />
<glyph unicode=")" horiz-adv-x="550" d="M43 104.5q-11 52.5 18 98.5q1 0 11.5 17t27.5 50t36 78.5t35.5 105t27.5 125.5t10 144.5t-14 158.5t-47.5 171t-88.5 178q-28 46 -15.5 98t58.5 80q46 29 97.5 16.5t81.5 -57.5q83 -135 129 -279t55.5 -262t-5 -238.5t-38 -203t-58.5 -163t-52 -110.5t-31 -52l-2 -3 q-31 -44 -84 -54.5t-97 20.5q-44 29 -55 81.5zM77.5 1278.5q5.5 -35.5 35.5 -76.5q13 -20 34 -6q8 6 9.5 15.5t-4.5 17.5q-18 26 -22.5 48.5t3 35.5t17.5 22.5t19 12.5l9 4q23 8 17 30q-3 9 -12.5 13.5t-18.5 1.5q-3 0 -16.5 -6t-32.5 -21t-31 -35.5t-6.5 -56zM131 258 q-11 -22 10 -33q9 -4 18.5 0t14.5 13q11 16 23 45q10 20 -13 32q-22 7 -32 -12zM182 377q-3 -9 1.5 -18.5t13.5 -12.5q9 -4 18 0.5t12 13.5q23 68 35 125q20 95 27 164q0 9 -7 17t-16 8q-10 1 -18 -5.5t-8 -15.5q-8 -76 -25 -157q-8 -38 -33 -119z" />
<glyph unicode="*" horiz-adv-x="520" d="M65.5 1308.5q7.5 -24.5 32.5 -36.5q18 -11 45 -25q-11 -6 -43 -20q-24 -10 -33.5 -35.5t1.5 -48.5q9 -24 34 -34t50 -1q7 4 22.5 11t22.5 11l4 -51q3 -26 24 -42t47 -13q26 5 42.5 26.5t13.5 47.5l-2 39q6 -3 15 -11t11 -10q22 -17 48.5 -14.5t43.5 24.5q15 20 12.5 47 t-22.5 44q-7 5 -21.5 15t-21.5 15l39 27q22 13 27.5 40t-8.5 50q-15 22 -41.5 26.5t-49.5 -10.5q-12 -8 -32 -22q0 17 4 45q3 26 -13.5 47.5t-42.5 24.5q-27 3 -47.5 -13t-25.5 -43q-1 -9 -2 -27t-2 -28l-41 22q-25 12 -49.5 3.5t-36.5 -31.5q-12 -25 -4.5 -49.5z" />
<glyph unicode="+" horiz-adv-x="937" d="M82 700q4 -52 45 -86.5t94 -29.5q47 2 117 6l6 -144q5 -54 45 -88t94 -30q53 5 87 45t30 94q-2 51 -6 123q51 -3 117 -10q54 -6 95.5 26.5t47.5 85.5q7 54 -26 96t-87 48q-66 9 -147 12q4 72 8 108q7 54 -25 96t-85 48q-54 6 -96 -26.5t-48 -86.5q-9 -63 -12 -141 l-135 -6q-54 -4 -88 -45t-31 -95z" />
<glyph unicode="," horiz-adv-x="329" d="M43 305q-6 -40 18 -72t64 -38q1 -2 10 20q-1 -7 -26 -63l-7 -13q-17 -35 -3.5 -73.5t48.5 -55.5q35 -18 73.5 -5.5t55.5 48.5l7 17q38 77 43 114q13 80 -24.5 131.5t-147.5 69.5q-40 6 -72.5 -17t-38.5 -63z" />
<glyph unicode="-" horiz-adv-x="1062" d="M82 594q3 -53 42 -86t93 -33h3q388 18 622 -4q53 -5 93 29t46 88q6 53 -27.5 94t-87.5 45q-252 22 -662 4h-3q-53 0 -87.5 -41t-31.5 -96z" />
<glyph unicode="." horiz-adv-x="342" d="M41 164l2 -43q5 -54 44 -89t93 -32t89 43t32 94l-4 43q-3 53 -43 88.5t-92 32.5q-54 -3 -89 -43t-32 -94z" />
<glyph unicode="/" horiz-adv-x="991" d="M70.5 88.5q20.5 -53.5 72.5 -76.5q53 -23 106 -2t75 74q35 78 94.5 204t214 420.5t274.5 475.5q31 47 19.5 103t-58.5 87q-47 30 -103 18.5t-87 -57.5q-126 -190 -277 -476t-239 -473t-88 -193q-24 -51 -3.5 -104.5z" />
<glyph unicode="0" horiz-adv-x="1110" d="M20 692q3 148 46 275q60 192 191 308.5t316 110.5t308 -125t176 -309q36 -134 33 -270q0 -142 -41 -270l-2 -9q-59 -182 -183 -292.5t-303 -110.5q-195 0 -323.5 114t-182.5 302q-38 134 -35 276zM207 1028q-3 -9 2 -17t14 -10q9 -3 18 2.5t11 14.5q4 12 16 35 q7 22 -10 32q-9 4 -18.5 1t-14.5 -11zM279 1155q-14 -17 2 -33q17 -13 32 2q40 50 99 84q62 38 153 47q10 0 16.5 7.5t6.5 17.5q-2 9 -9 15t-16 5q-99 -6 -176 -53q-62 -35 -108 -92zM334 686q0 -64 8 -113l279 486q-21 11 -56 14q-67 1 -119 -54.5t-81 -148.5 q-28 -89 -31 -184zM489 330q34 -15 72 -15q63 0 110.5 50t73.5 133l3 6q28 89 28 180q0 74 -10 125zM543 215q0 -24 20 -27h1q84 -8 156 37q70 44 101 135q7 21 -14 31q-9 3 -17.5 -2t-11.5 -14q-15 -45 -42.5 -75.5t-55 -42.5t-53.5 -17.5t-42 -4.5l-16 1q-9 0 -17 -6 t-9 -15z" />
<glyph unicode="1" horiz-adv-x="608" d="M21 1100.5q-2 65.5 42 111.5q41 44 105.5 100t112.5 89q25 17 57 31l12 6q142 52 211 -74l2 -4q19 -36 19 -76v-12q-28 -465 6 -1105v-3q1 -66 -43 -113.5t-109 -50.5t-113 41.5t-49 110.5q-2 45 -5.5 123t-8.5 294t-2 402q-44 -27 -96.5 -21.5t-91.5 41.5 q-47 44 -49 109.5zM80 1047q3 -9 12 -13.5t17 -1.5q9 3 14 11.5t2 17.5q-13 39 8 72q21 36 90 77q21 11 10 33q-14 17 -32 8q-82 -48 -107 -94q-34 -51 -14 -110zM313 528q2 -55 2 -155q0 -9 7.5 -17t17.5 -8q9 0 15.5 8t6.5 17q0 23 -1 75t-1 82q-7 215 0 408q0 21 -22 25 q-9 0 -17 -7t-8 -16q-5 -129 0 -412zM321 242q1 -18 3 -28l2 -11q4 -22 28 -19q21 7 17 29q-1 3 -1.5 9t-1.5 23.5t1 33.5q0 9 -6.5 17t-16.5 9q-21 0 -24 -22q-2 -23 -1 -41z" />
<glyph unicode="2" horiz-adv-x="987" d="M28.5 1080q-20.5 62 8.5 120q67 134 184 196t248 52q115 -6 215 -68l14 -8q99 -66 146 -164l4 -10q32 -71 35 -148t-29.5 -168t-103.5 -180q-28 -35 -127 -155q-122 -146 -187 -230q31 -1 64 -1t62 -0.5t57 -0.5h52t45.5 0.5t38.5 0.5t28.5 0.5t18.5 0.5h7 q65 0 111.5 -45.5t46.5 -111.5q0 -64 -46.5 -111t-111.5 -47h-2q-289 -7 -571 8q-202 11 -193 207v2q2 37 23 85.5t48 93.5t77 111.5t87 112.5t101 123l125 154q85 103 57 168l-2 4q-8 19 -33 37l-6 4q-33 20 -71 23q-39 3 -75 -16t-55 -60q-29 -59 -90 -79t-120 9 q-60 29 -80.5 91zM92 1161q3 -10 12 -14q8 -4 17 -1t14 11q12 27 55 70q6 6 5.5 16.5t-7.5 16.5q-12 16 -32 0q-20 -21 -35.5 -41.5t-20.5 -30.5l-6 -10q-5 -7 -2 -17zM202 433.5q1 -9.5 9 -15.5t17.5 -5t15.5 9q0 2 50.5 67t137.5 169.5t160 185.5q6 6 5.5 16.5t-7.5 16.5 q-6 6 -16.5 5t-16.5 -8q-74 -80 -161.5 -186t-137.5 -172l-51 -65q-6 -8 -5 -17.5zM211 1284q14 -17 33 -6q0 2 20.5 15t55.5 29t76 26.5t89 3.5t86 -37q8 -6 17.5 -5t15.5 9t5 17.5t-9 15.5q-46 36 -103 45.5t-104.5 -2.5t-88 -29t-64.5 -33l-23 -16q-17 -14 -6 -33z M700 274q0 -9 7 -15.5t16 -6.5q90 0 127 -37q19 -17 24 -49q0 -10 7.5 -16.5t17.5 -6.5q9 2 16 9t7 16q-5 48 -41 82q-46 46 -156 49q-11 0 -18 -7.5t-7 -17.5z" />
<glyph unicode="3" horiz-adv-x="985" d="M24 350.5q12 63.5 66 100.5t117 25t100 -66q41 -59 90 -80q55 -21 111 -15q69 9 107.5 46.5t40 82t-25 88t-75.5 64.5q-77 33 -199 27q-65 -3 -112.5 40t-50.5 109q-3 65 40 113t107 51q14 1 59.5 1t75.5 4.5t57 16.5q31 14 48 37q32 57 7.5 94.5t-85.5 43.5 q-84 12 -137 -64q-37 -54 -101.5 -66t-116.5 25q-54 35 -67 99t24 118q78 116 197 166q108 49 240 35q111 -15 204 -78q91 -60 129 -147q39 -86 33 -191q-3 -110 -61 -203q-11 -16 -25 -34q38 -35 72 -88q66 -105 72 -230q6 -122 -39 -217q-43 -100 -144 -166 q-108 -74 -235 -88q-152 -17 -275 39q-136 60 -225 190q-35 54 -23 117.5zM72 384.5q0 -9.5 8 -15.5q6 -7 16 -7t17 7q2 3 7 6.5t19.5 10t30 7t39 -9.5t45.5 -33q8 -6 17.5 -6t15.5 6q7 8 7 17.5t-7 15.5q-32 32 -65 46t-57 10.5t-44 -11.5t-31 -18l-10 -9q-8 -7 -8 -16.5z M135 1178q-10 -19 10 -31q9 -5 18.5 -2t12.5 12q1 0 5.5 8t18 25.5t31.5 36.5q7 6 7 15.5t-7 17.5q-6 6 -16 6t-16 -6q-20 -22 -36 -42.5t-22 -29.5zM227 782q-1 -9 4.5 -16.5t14.5 -9.5t17 3.5t9 14.5l2.5 10t9.5 21.5t18.5 28.5t31 25t45.5 15q9 1 14.5 9.5t5.5 17.5 q-1 10 -9 16.5t-17 4.5q-35 -5 -63 -21.5t-43 -36t-24.5 -38.5t-12.5 -32zM250 1301.5q-2 -9.5 4 -17.5q14 -17 33 -6q8 6 21.5 15t53.5 28t78 27.5t87 2.5t87 -36q8 -6 17.5 -5t15.5 9t5 17.5t-9 15.5q-46 36 -103 45.5t-104.5 -2.5t-88 -29t-63.5 -33l-24 -16 q-8 -6 -10 -15.5zM565.5 1167.5q3.5 -9.5 12.5 -12.5q35 -17 49 -48.5t11 -54.5l-3 -22q-2 -9 3.5 -17.5t14.5 -11.5q9 -2 17.5 4t9.5 15q1 5 2.5 13.5t1 32.5t-7.5 45t-26.5 45.5t-51.5 39.5q-9 5 -18.5 2t-12.5 -12q-5 -9 -1.5 -18.5zM596 289q1 -9 9.5 -15t17.5 -4 q2 0 11 3t26 14t32 28t29 49.5t18 73.5q2 9 -4 17t-16 8q-9 2 -17 -4t-8 -15q-4 -32 -14 -57t-20.5 -38t-22 -21.5t-17.5 -10.5t-8 -2q-9 -2 -14 -9.5t-2 -16.5z" />
<glyph unicode="4" horiz-adv-x="987" d="M25 1280v2q0 65 45.5 111.5t111.5 46.5q64 0 111 -47t47 -111v-3q-6 -357 2 -550q2 -36 238 6q0 331 10 553q3 66 52 109.5t114 40.5q64 -3 108 -51t41 -113q-13 -224 -10 -516q53 -32 68 -94q12 -49 -7 -95t-59 -73l12 -332q3 -66 -40.5 -113.5t-108.5 -50.5 q-66 -3 -113.5 41.5t-50.5 110.5q-6 112 -10 282q-126 -16 -219.5 -13.5t-156.5 16t-102 51t-57 92t-22 137.5q-13 274 -4 563zM63 1155q2 -9 9 -15t16 -5q10 0 16.5 7.5t6.5 16.5q-7 78 10 121q20 53 82 66q9 2 14 10t2 18q-2 9 -9.5 14.5t-16.5 2.5q-87 -19 -117 -95 q-20 -58 -13 -141zM70 1085l2 -45q0 -9 6.5 -15.5t15.5 -6.5t16 6.5t7 15.5v47q-2 9 -9 16t-16 7q-22 -4 -22 -25zM317 629q1 -10 8.5 -16.5t16.5 -6.5q41 3 81.5 6t69 5.5t51 5t34.5 3.5l12 1q9 0 14.5 7.5t5.5 16.5t-7.5 15.5t-16.5 5.5q-94 -9 -246 -19q-23 -3 -23 -24z M637 1204q0 -9 6.5 -15.5t15.5 -6.5q10 0 17.5 7.5t5.5 16.5q0 54 14 90q22 50 78 58q22 7 19 26q-1 10 -9.5 16.5t-17.5 4.5q-81 -13 -113 -86q-20 -49 -16 -111z" />
<glyph unicode="5" horiz-adv-x="985" d="M22 350.5q12 63.5 66 100.5t118 25t101 -66q41 -59 90 -80q53 -21 109 -15q166 22 141 174q-7 43 -26 70q-29 36 -68 51q-102 47 -287 15q-65 -11 -117.5 27t-62.5 102q-2 12 -2 34q0 16 1.5 57.5t9 133t20 171.5t39 153.5t61.5 97.5q105 72 580 29q65 -5 107 -53.5 t38 -114.5q-5 -65 -53.5 -107.5t-114.5 -38.5l-346 14q-4 -2 -16 -180q148 0 270 -51q124 -56 197 -158q60 -81 81 -200q24 -157 -32 -283q-45 -99 -144 -166q-107 -73 -235 -88q-152 -17 -275 39q-133 55 -225 190q-37 54 -25 117.5zM64 368q0 -10 8 -16q6 -8 15 -8t17 8 q3 3 7.5 6.5t19.5 10.5t30.5 8t39 -9t45.5 -32q7 -7 17 -7.5t16 5.5q17 18 0 35v-2q-32 33 -65 47t-57 10t-44 -12t-31 -18l-10 -9q-8 -7 -8 -17zM188 1124q-4 -21 17 -28q9 -2 18 3.5t10 14.5q5 14 11 39q1 9 -4.5 17.5t-14.5 11.5q-21 4 -28 -17zM217 1255q-3 -20 21 -28 q9 -2 17 4t9 16q1 5 3 12.5t10.5 26.5t20.5 33.5t35 26t52 10.5q10 0 17.5 6t7.5 16q0 9 -7 16t-16 9q-40 2 -72.5 -13t-49.5 -37t-29 -44t-16 -38zM502 240q0 -9 7 -16t17 -7q6 0 16 1t38 8t53 18.5t54.5 37.5t47.5 60q11 22 -10 33q-7 5 -17 2t-14 -12 q-24 -44 -66.5 -69.5t-73.5 -28.5l-30 -3q-22 -4 -22 -24z" />
<glyph unicode="6" horiz-adv-x="1005" d="M27 516q8 73 36 174q23 87 64 184q50 123 116.5 248.5t107.5 190.5t44 65q35 55 99 68t118 -23q55 -37 68 -100.5t-23 -118.5q-1 0 -22 -31.5t-58 -95.5t-71 -131q112 -3 207 -45q129 -56 200 -164q47 -69 64.5 -146.5t-1.5 -172.5t-79 -191q-59 -92 -147.5 -147.5 t-190.5 -73.5q-123 -18 -237 19q-124 40 -205 137q-118 145 -90 354zM168 774q-2 -9 3.5 -17t14.5 -9q9 -3 17 2t10 14q8 29 37 82q4 8 2 17t-10 14q-9 4 -18.5 1.5t-14.5 -10.5q-15 -25 -25 -48.5t-13 -34.5zM250 934q-7 -21 12 -31q8 -4 17 -1t14 11q0 3 31 66t82 153.5 t92 141.5q15 19 -2 33q-8 6 -17.5 5t-15.5 -9q-44 -53 -97 -145t-84 -158zM338 473q-11 -71 22 -113q20 -23 58 -36q45 -16 90 -7q81 13 123 78q65 102 22 166q-18 30 -65 51q-52 22 -103 19h-4q-45 -5 -82 -34.5t-55 -82.5zM627 305.5q-2 -8.5 2 -16.5q10 -20 30 -10 q5 2 13 7t28.5 23.5t35 39.5t24.5 57t6 75q0 10 -8 16.5t-17 4.5q-10 0 -16 -8t-4 -17q3 -31 -4 -58.5t-20 -45t-26.5 -30.5t-23.5 -19l-10 -5q-8 -5 -10 -13.5z" />
<glyph unicode="7" horiz-adv-x="985" d="M29 1202q-22 61 6 120t90 81q64 23 219 40t289 19q81 3 141 -4q79 -8 128 -44.5t61 -100.5q2 -10 2 -31t-2 -33q-19 -94 -43 -193.5t-48 -188t-49.5 -176t-49 -162t-45 -142t-39.5 -119.5t-31.5 -89.5t-21.5 -58.5l-7 -20q-23 -60 -83 -86.5t-120 -3.5q-62 23 -88.5 82.5 t-3.5 120.5l10 26q9 26 26 74.5t39 112.5t48.5 147.5t53 172.5t55 195.5t52.5 207.5q-112 -3 -229 -15.5t-160 -27.5q-61 -22 -119.5 6t-80.5 90zM68 1233q0 -9 6.5 -16t15.5 -7q10 0 17.5 7t7.5 16v10t5.5 21.5t15.5 27.5t33.5 22t55.5 11q9 0 16 7t7 16t-7 15.5t-16 6.5 q-45 0 -78 -15t-47.5 -32t-22.5 -41.5t-8.5 -32.5t-0.5 -16zM498 465q0 -11 7 -18t17 -7q9 0 16 7.5t7 17.5q0 29 16 80q7 21 -14 28q-9 3 -18.5 -1t-12.5 -13q-8 -26 -12.5 -49.5t-5.5 -33.5v-11zM543 625q-3 -9 2 -18.5t14 -10.5q11 -2 19.5 3.5t9.5 14.5q6 27 16.5 71 t42 140t60.5 146q4 9 1.5 18.5t-10.5 14.5q-20 10 -32 -9q-31 -54 -62 -146.5t-46 -158.5z" />
<glyph unicode="8" horiz-adv-x="1005" d="M22 483q12 187 128 314q-54 70 -69 150t5 157t70 151q75 113 205 163.5t265.5 20.5t221.5 -136q81 -106 80 -245t-76 -249q84 -80 114.5 -180.5t11 -202t-82.5 -199.5q-62 -97 -164.5 -155.5t-212 -69.5t-218.5 29.5t-183 130.5q-107 134 -95 321zM74 414q1 -9 10 -15 t18 -4q9 3 14.5 11.5t2.5 17.5q-11 49 1 107t30 91l18 33q4 9 2 18.5t-10 14.5q-9 4 -18.5 2t-14.5 -10q-9 -15 -22 -41.5t-28.5 -97t-2.5 -127.5zM172 1128q-3 -9 2 -17t14 -11q9 -2 17.5 3.5t11.5 14.5q4 12 14 35q5 9 2 18.5t-12 12.5q-7 5 -17 2t-14 -12zM244 1255 q-15 -19 2 -32q19 -15 33 2q46 54 96 84q73 39 155 47q10 0 16.5 7.5t6.5 16.5q-2 10 -9.5 16t-17.5 5q-96 -8 -174 -53q-60 -35 -108 -93zM328.5 438q2.5 -45 29.5 -78q52 -58 141.5 -43.5t131.5 80.5q21 33 30.5 64t6 59.5t-24 52t-57.5 39.5q-54 22 -102.5 16.5 t-83.5 -36.5t-54.5 -70t-17 -84zM411 1071q-32 -61 24 -110q1 -2 3 -3q40 -16 73 -13t56.5 22t36.5 43.5t12.5 51t-14.5 44.5q-41 51 -109 29q-56 -17 -82 -64zM535 858q5 -9 13.5 -12.5t16.5 0.5q73 33 115 80q44 50 41 102q0 9 -7 16t-16 7t-15.5 -7t-6.5 -16 q0 -32 -31 -72q-40 -43 -98 -67q-20 -10 -12 -31zM578 260q-3 -9 2 -18q5 -8 13.5 -11.5t16.5 0.5q5 3 14 8t32 23t41.5 40t35 58t19.5 76q1 9 -5.5 16t-15.5 9q-9 1 -15.5 -5.5t-8.5 -15.5q-3 -33 -16 -62t-29.5 -47.5t-33 -32.5t-27.5 -20l-11 -6q-9 -3 -12 -12z" />
<glyph unicode="9" horiz-adv-x="1005" d="M28 859.5q-17 77.5 2.5 172.5t80.5 191q62 97 164 155.5t211 69.5t218.5 -29.5t184.5 -130.5q47 -58 71 -123t24.5 -135t-9.5 -131.5t-31 -138.5q-94 -328 -332 -690q-37 -54 -101 -67t-118 24t-67 100t24 119q74 108 152 258q-123 2 -233.5 56.5t-176.5 152.5 q-47 69 -64 146.5zM141 1112q-1 -9 4.5 -17.5t14.5 -11.5t16.5 2.5t9.5 14.5q7 14 17 37q5 7 2 16.5t-12 13.5q-21 10 -31 -10zM208 1219.5q1 -9.5 9 -15.5t17.5 -5t15.5 9q40 51 96 82q68 41 156 47q9 2 15 9t5 16q0 10 -7 16t-17 6q-96 -8 -174 -53q-64 -37 -111 -94 q-6 -8 -5 -17.5zM342.5 924q7.5 -32 27 -57t58.5 -38.5t92 -9.5h4q89 10 130 96t-1 161t-155 57q-40 -7 -73.5 -29t-52 -51.5t-28 -63t-2 -65.5zM562 727q-4 -9 1 -16q5 -9 13.5 -13t17.5 0q73 33 115 80q44 50 41 103q0 9 -7 15.5t-16 6.5q-11 0 -17 -7t-5 -17 q0 -36 -31 -70q-35 -40 -99 -70q-9 -3 -13 -12z" />
<glyph unicode=":" horiz-adv-x="546" d="M82 451l2 -43q3 -54 43 -89t94 -32q53 3 88.5 43t32.5 94l-4 43q-3 54 -42.5 89t-92.5 32q-54 -3 -89 -43t-32 -94zM82 915l2 -43q3 -53 43 -88t94 -32q53 5 88.5 45t32.5 92l-4 43q-3 54 -42.5 89t-92.5 32q-54 -3 -89 -43.5t-32 -94.5z" />
<glyph unicode=";" horiz-adv-x="573" d="M84 489q-6 -40 17 -72t63 -38q4 -1 10 15q0 1 1 4l1 1q-1 -5 -29 -67l-4 -10q-17 -35 -4.5 -72.5t49.5 -54.5q35 -19 73.5 -5.5t55.5 50.5l5 8q37 81 43 121q13 80 -24 131t-146 69q-40 6 -72.5 -18t-38.5 -62zM96 932l2 -43q3 -54 43.5 -89t94.5 -32q53 3 87.5 43 t30.5 94l-2 43q-3 53 -43 88t-94 31q-52 -3 -87 -42.5t-32 -92.5z" />
<glyph unicode="&#x3c;" horiz-adv-x="894" d="M61 664q-3 -121 136.5 -223.5t429.5 -207.5q51 -19 99 3.5t67 72.5q19 51 -4 99t-74 67q-398 143 -398 184q0 49 435 220q50 20 71 68t2 97q-20 51 -69 72.5t-99 1.5q-306 -121 -450.5 -228.5t-145.5 -225.5z" />
<glyph unicode="=" horiz-adv-x="1064" d="M82 512q3 -54 43 -88.5t94 -30.5h3q388 20 620 -4q54 -5 95.5 29t45.5 88q5 53 -29 94t-86 45q-118 12 -284.5 13t-273.5 -4l-107 -5q-54 -3 -89 -43t-32 -94zM82 897q3 -54 43 -89t94 -32h3q388 22 620 -2q54 -5 95.5 29t45.5 86q4 54 -29 94.5t-86 46.5 q-118 12 -284.5 13t-273.5 -4l-107 -5q-54 -4 -89 -44t-32 -93z" />
<glyph unicode="&#x3e;" horiz-adv-x="897" d="M72 1044q-20 -49 1 -97t72 -68q433 -171 433 -220q3 -40 -398 -184q-50 -19 -72.5 -67t-3.5 -99q17 -50 65 -72.5t99 -3.5q291 104 430 207t138 224q-3 118 -147.5 225.5t-450.5 228.5q-50 20 -98.5 -1.5t-67.5 -72.5z" />
<glyph unicode="?" horiz-adv-x="978" d="M20 965q3 191 140 331q65 68 150.5 109t178.5 45h58q180 -15 293 -141q110 -116 116 -277v-2q3 -27 0 -51q-3 -48 -20 -93.5t-39 -80t-58 -70t-63.5 -58.5t-70.5 -50t-65 -39.5t-60 -32.5l-37 -20q-44 -29 -96.5 -17.5t-81.5 57.5q-28 44 -15.5 97t56.5 82q36 21 53 28 q35 19 56 31t59.5 37t61 45.5t41.5 48t21 53.5v25q-3 61 -49 113q-49 52 -121 55h-26q-88 -3 -156 -74q-64 -64 -67 -153q0 -54 -37.5 -91.5t-91.5 -37.5t-92 38.5t-38 92.5zM63 993q0 -10 7 -17t18 -7q9 0 17 7t8 17q2 11 8 31q3 10 -1.5 19t-13.5 12q-23 7 -30 -15z M110.5 1109q3.5 -10 12.5 -15q23 -8 33 12q54 106 135 166q81 61 190 78q10 2 16 10t5 18t-9.5 16.5t-17.5 4.5q-121 -19 -213 -88q-90 -67 -151 -183q-4 -9 -0.5 -19zM326 197q-3 66 41 117t110 55q68 3 118.5 -42t53.5 -112l4 -43q3 -66 -41 -117t-110 -55 q-68 -3 -118.5 41.5t-53.5 110.5zM360 182q0 -10 8 -17t17 -7q26 4 23 26v11t5 25t13.5 32t28.5 26.5t47 14.5q22 4 22 26q-1 10 -9 16.5t-17 6.5q-41 -3 -70 -21t-41.5 -41t-19.5 -45t-7 -37v-16zM376.5 637.5q1.5 -19.5 10.5 -39.5q3 -9 12.5 -12.5t18.5 0.5q9 3 12.5 12 t-0.5 18q-15 35 8 63t48.5 39t31.5 11q9 3 14.5 11.5t2.5 17.5q-6 22 -31 18q-2 -1 -6 -2t-15 -5.5t-21.5 -10t-24 -15t-24.5 -19t-20 -23.5t-13.5 -29t-3 -34.5z" />
<glyph unicode="@" horiz-adv-x="1470" d="M20 674q0 159 54 307l4 8q65 169 180 273q172 162 424 165q176 1 321.5 -68.5t253.5 -187.5q109 -124 158 -266q53 -149 25 -278q-32 -143 -154 -203q-224 -111 -397 47q-55 -49 -123 -70l-14 -4q-98 -27 -187 13q-100 44 -164 155q-48 96 -35.5 181.5t72.5 156.5 q57 67 137 98q93 37 179 17q87 -18 151.5 -84.5t93.5 -183.5q3 -8 9 -19t17 -27.5t25.5 -29t32.5 -21.5t41 -8.5t47 12.5q10 2 17 27q12 51 -17 135q-32 95 -106 178q-70 78 -167.5 125t-213.5 47q-150 -3 -250 -96q-71 -66 -115 -176l-2 -6q-36 -98 -36 -215 q0 -195 102 -303q43 -46 101.5 -74t117 -35.5t119 -6t112.5 12.5t93 22.5t64 20.5l24 9q49 22 99.5 1.5t70.5 -71.5q22 -49 1.5 -98.5t-71.5 -69.5q-2 -2 -34 -13.5t-91 -27.5t-132 -29t-161 -13t-173.5 15.5t-173 61.5t-156.5 119q-83 89 -127 214t-46 263zM119 850 q0 -11 7 -18t17 -7q9 0 17 7.5t8 17.5q0 20 6 53q2 11 -4 19.5t-16 9.5q-9 3 -17 -3.5t-10 -15.5zM150 999q-3 -9 1.5 -18t14.5 -12q9 -4 18.5 0.5t12.5 13.5q46 121 137 205q84 81 229 133q10 3 15 12.5t2 18.5t-12.5 14t-18.5 2q-149 -51 -248 -143q-98 -88 -151 -226z M422 766q-3 -9 2 -18.5t14 -12.5q10 -3 19 2.5t12 16.5q1 5 4 13.5t14.5 32.5t26 45t41 45t57.5 38q8 5 11.5 14.5t-0.5 18.5q-3 9 -12.5 12t-18.5 -2q-58 -26 -100.5 -77.5t-55.5 -89.5zM629 692q17 -36 39 -43q9 -3 18 0h6q16 8 27 19q16 16 22 37q-17 56 -41 59 q-10 2 -30 -2q-20 -10 -35 -25q-18 -25 -6 -45zM664 594q0 -10 7.5 -17.5t16.5 -7.5q5 0 13.5 1t30.5 7.5t38.5 18t31 36.5t15.5 58q0 10 -6.5 17.5t-15.5 7.5q-10 1 -17.5 -5.5t-9.5 -17.5q-1 -33 -21 -51.5t-39 -20.5l-20 -2q-9 0 -16.5 -7.5t-7.5 -16.5zM924 240 q10 -24 32 -17q80 33 115 19q18 -4 29 -35q5 -9 14.5 -12.5t18.5 0.5q9 3 12.5 12t-0.5 18q-19 51 -58 64q-52 17 -147 -19q-10 -3 -14.5 -12t-1.5 -18zM1317 569q-13 -17 4 -34q21 -14 35 6q4 5 10 14.5t19.5 40t21 63.5t6.5 83t-16 100q-3 9 -12.5 14t-18.5 2 q-10 -3 -14.5 -12.5t-1.5 -18.5q20 -78 12.5 -135.5t-26.5 -89.5z" />
<glyph unicode="A" horiz-adv-x="1079" d="M25 712q-4 18 -4 37q0 29 10 58q26 69 88 96l4 17q24 103 56.5 189t75.5 157t99 116.5t121 57.5l14 4l35 2q130 0 232 -119.5t170 -325.5q3 -12 12.5 -41.5t13.5 -46.5q75 -22 107 -100q10 -30 10 -59q0 -21 -5 -42q-13 -49 -52 -83q37 -222 37 -449q0 -69 -49 -118.5 t-119 -49.5q-69 0 -118.5 49.5t-49.5 118.5q0 176 -27 355q-85 -10 -163 -10q-66 0 -128 7q-16 -157 -16 -262q0 -50 4 -82q1 -11 1 -21q0 -56 -36 -103q-43 -55 -110 -62q-12 -2 -24 -2q-54 0 -100 36q-56 42 -65 111q-6 55 -6 123q0 158 27 361q-34 34 -45 81zM205 999 q0 -9 6.5 -15.5t15.5 -6.5q10 0 17.5 6.5t7.5 15.5q2 8 10 35q2 10 -2.5 19t-13.5 10q-10 3 -19 -2t-12 -14zM240 1118q-3 -9 1.5 -18.5t14.5 -12.5q22 -7 29 17q33 97 94 160q56 63 135 88q9 3 14 12t2 18t-12 13.5t-18 1.5q-84 -26 -156 -101q-74 -80 -104 -178zM453 862 q36 -4 77 -4t86 4l-10 35q-62 188 -80 209q-18 -26 -73 -244zM614 977q16 -38 24.5 -69.5t9.5 -43.5l1 -12q2 -9 10 -15.5t17 -5.5q9 0 15.5 8t6.5 17q-2 47 -39 139q-10 20 -30 13q-9 -3 -13.5 -12.5t-1.5 -18.5z" />
<glyph unicode="B" horiz-adv-x="1054" d="M20 704q2 128 14.5 289.5t37.5 284.5q9 45 40 79t74 48q125 40 246 40t214 -31t163 -87q105 -85 135 -205q11 -46 11 -90q0 -85 -40 -166q-20 -47 -61 -94l23 -18q74 -56 114 -131t43 -158q1 -12 1 -24q0 -161 -128 -283q-70 -67 -170.5 -107t-246.5 -50q-29 -2 -60 -2 q-122 0 -262 32q-55 12 -91.5 54t-41.5 97q-2 27 -5 73.5t-7 183.5q-3 100 -3 195v70zM80 991q0 -9 6.5 -15.5t15.5 -6.5q10 0 17.5 6.5t7.5 15.5q2 23 6 76q1 10 -5 17.5t-15 9.5q-9 1 -17 -5.5t-10 -15.5zM90 1143q-1 -9 5.5 -17t15.5 -8q23 -3 26 21q12 105 56 149 q52 49 180 58q9 0 15.5 7.5t6.5 16.5q-2 9 -8.5 16t-15.5 7q-143 -8 -211 -70q-54 -54 -70 -180zM356 498l6 -158q51 -6 94 -6q151 0 220 67q24 21 24 45q-3 24 -26 41q-53 42 -151 42q-39 0 -85 -7zM360 848q208 69 254 166q7 16 4 24q-4 16 -20 29q-53 43 -150 43 q-30 0 -65 -4q-16 -112 -23 -258zM500 836q3 -9 11 -13.5t17 -1.5q2 0 17.5 7t41 22.5t51 37t47 55t28.5 71.5q1 9 -4.5 16.5t-14.5 9.5q-9 3 -17 -2.5t-11 -15.5q-8 -48 -46 -87t-72 -54l-34 -15q-9 -3 -13.5 -12t-0.5 -18zM530 281q2 -9 9 -16t16 -7q5 0 18 1.5t42.5 9 t57 19.5t57 37.5t46.5 59.5q4 9 1 18.5t-11 14.5q-22 11 -33 -10q-22 -43 -67 -68.5t-79 -29.5l-34 -5q-9 0 -16 -7.5t-7 -16.5z" />
<glyph unicode="C" horiz-adv-x="1040" d="M20 694q4 137 30 252.5t69 199t95.5 142.5t115.5 96q101 60 216 60h11q112 0 217 -62q115 -70 183 -198q62 -117 61 -261v-30q-5 -69 -56 -116q-48 -44 -112 -44h-8q-70 3 -116 55q-44 48 -44 114v9v15q0 54 -19 96q-22 48 -59 72q-29 16 -51 16q-28 0 -53 -14 q-61 -37 -100.5 -139t-43.5 -273q-1 -16 -1 -32q0 -226 110 -294q37 -19 67 -22q7 -1 14 -1l60 11q72 25 78 82q7 68 61 112q47 38 106 39q8 0 17 -1q69 -8 113 -62q38 -47 38 -104q0 -9 -1 -19q-13 -129 -95.5 -225t-205.5 -139q-79 -29 -168 -29q-22 0 -45 2 q-114 9 -217 74q-128 80 -201 234q-67 141 -67 344q0 20 1 40zM172 1075q-2 -9 3.5 -17t14.5 -9q9 -3 17.5 2t11.5 14q6 31 35 84q6 8 3.5 17t-11.5 14q-8 6 -17 3t-14 -12q-16 -26 -26.5 -50t-13.5 -35zM253 1225.5q1 -9.5 9 -15.5t17.5 -5t15.5 9q3 4 9 10.5t24.5 24.5 t38.5 33.5t49 31.5q30 18 59 26q27 8 61 8h4q36 0 68 -15q9 -4 18.5 0t12.5 13q10 19 -12 30q-31 13 -63.5 17.5t-61.5 0t-57 -14.5t-51.5 -24t-45 -29t-37.5 -30t-28 -26.5t-19 -19.5l-6 -7q-6 -8 -5 -17.5zM487 264q-3 -21 19 -28q6 -1 16 -3t40 -2t57.5 6t62.5 24.5 t61 49.5q6 6 5.5 16.5t-7.5 16.5q-19 15 -32 -2q-22 -24 -50 -39t-52 -19t-45 -5t-34 1l-12 3q-10 1 -18.5 -4.5t-10.5 -14.5z" />
<glyph unicode="D" horiz-adv-x="1048" d="M20 693q0 20 -1 41q0 110 7 246q8 160 29 284q9 51 44 88t83 49q112 29 212 29q108 0 200 -34q178 -64 291 -220q140 -193 143 -451v-11q0 -250 -133 -444q-109 -162 -293 -232q-101 -39 -220 -39q-97 0 -206 26q-55 12 -90.5 53t-40.5 96q-3 27 -6.5 73.5t-10 182.5 t-8.5 263zM104 977q0 -9 7.5 -16t17.5 -7q9 0 16 7t7 16q2 23 8 76q0 23 -23 26q-10 0 -17 -6t-7 -16zM116 1128q-1 -9 5.5 -16.5t15.5 -7.5q9 -1 17 5t10 15q9 107 55 150q48 48 180 57q9 0 15.5 8t5.5 17q0 10 -7.5 16t-17.5 6q-150 -9 -209 -71q-57 -54 -70 -179z M371 338q163 0 250 123q71 105 71 250v12q0 149 -78 256q-81 111 -228 111h-15q-16 -149 -16 -337t16 -415zM483 285q3 -9 11.5 -14.5t17.5 -4.5q3 0 19 5t46 20t60 37.5t62.5 64t52.5 92.5q6 19 -13 31q-9 3 -18 -1t-12 -13q-18 -44 -45.5 -80t-54.5 -55.5t-52 -32.5 t-40 -17l-15 -4q-9 -1 -15 -10t-4 -18z" />
<glyph unicode="E" horiz-adv-x="1034" d="M24 578q-3 78 -4 162q0 97 4 202q8 196 31 348q5 58 44.5 101.5t97.5 52.5q70 11 233.5 11t421.5 -11h3h1q70 -3 116 -55q43 -48 42 -110v-11q-3 -70 -55 -116q-48 -43 -110 -42h-11q-32 1 -84 3q-52 3 -176 5q-69 1 -126 1q-45 0 -81 -1q-10 -129 -13 -229l291 -2 q71 -2 119 -51q48 -48 47 -116q0 -72 -49.5 -120.5t-118.5 -48.5l-287 2q2 -86 11 -217q30 -1 64 -1t67.5 0.5t68.5 1t66.5 1t60.5 1.5t52.5 2t41 1.5t27.5 1.5h10h13q60 0 108 -42q52 -47 56 -116v-11q0 -62 -42 -110q-46 -52 -116 -55h-4q-258 -11 -422 -11t-234 11 q-35 8 -53 19q-25 15 -29 18l-18 19l-12 14l-13 20l-10 25q0 3 -3 15t-3 18v8q-5 42 -11 143t-12 269zM78 1059q0 -9 6.5 -17t15.5 -8q10 0 17.5 8t7.5 17q2 12 6 43q0 23 -22 26q-9 2 -17 -4.5t-8 -15.5zM88 1180q0 -10 7 -17.5t16 -9.5q9 0 16.5 7t9.5 16q3 73 29 120 q26 53 94 64q9 2 15.5 9.5t5.5 16.5q-2 9 -10 15.5t-17 5.5q-89 -13 -131 -86q-27 -49 -35 -141zM489 285q0 -9 7 -16t16 -7q75 -2 156 -2t124 1l44 1q9 0 15.5 7t6.5 16q0 11 -7 17.5t-17 6.5q-77 -2 -157 -2t-163 2q-11 0 -18 -7t-7 -17zM543 846q0 -9 6.5 -16t15.5 -7 q80 -3 119 -26q38 -20 45 -58q3 -23 27 -20q9 1 14.5 9t3.5 17q-10 62 -65 95q-49 27 -142 30q-11 0 -17.5 -7t-6.5 -17z" />
<glyph unicode="F" horiz-adv-x="1032" d="M22 564q-4 90 -4 183t4 189q8 194 31 346q3 57 43.5 101t98.5 53q70 11 233.5 11t421.5 -11h3h1q70 -3 116 -55q43 -48 42 -110v-11q-3 -70 -55 -116q-48 -43 -110 -42h-11h-10q-11 1 -29 1.5t-42 1.5t-54 2t-62 1.5t-67.5 1t-69.5 1t-68.5 0.5t-64.5 -1 q-10 -129 -13 -229l291 -2q69 -1 117.5 -51t48.5 -119t-49.5 -117.5t-118.5 -48.5l-287 2q3 -92 8 -182.5t9 -135.5l4 -45q1 -8 1 -16q0 -58 -40 -106q-46 -54 -115 -60h-14q-61 0 -109 40q-54 45 -57 114v3q-6 61 -10.5 144t-12.5 263zM82 1049q0 -11 7 -18t17 -7 q9 0 16 7.5t7 17.5q2 10 4 43q2 9 -4 17t-16 9q-10 0 -17.5 -6t-7.5 -16zM92 1167q0 -9 7 -16.5t16 -7.5q9 -2 16.5 5t7.5 17q8 83 31 121q28 54 94 62q24 4 21 28q-1 9 -9.5 15t-17.5 4q-89 -13 -131 -86q-28 -49 -35 -142zM547 836q0 -10 6.5 -17.5t15.5 -7.5 q71 0 119 -25q40 -21 43 -59q1 -9 9.5 -14.5t19.5 -3.5q21 4 18 26q-10 60 -67 92q-53 31 -140 31q-10 0 -17 -6.5t-7 -15.5z" />
<glyph unicode="G" horiz-adv-x="1042" d="M20 694q7 221 67.5 378t158.5 249q106 97 233 119q36 6 71 6q88 0 173 -37q95 -43 167 -124.5t103 -192.5q8 -25 8 -49q0 -40 -21 -78q-33 -61 -99 -80q-25 -8 -50 -8q-40 0 -78 21q-61 33 -81 99q-10 37 -32.5 64.5t-49.5 38.5q-25 11 -55 8q-31 -7 -60 -33 q-111 -104 -119 -391q-1 -17 -1 -32q0 -223 106 -292q35 -21 69 -24q8 -1 17 -1q29 0 57 9q33 13 55 35.5t25 50.5q3 31 0 53v2q-3 22 -12 31q-4 4 -23 8h-31q-13 -2 -26 -2q-54 0 -98 34q-55 41 -66 110q-2 12 -2 24q0 55 34 101q42 56 111 65q33 5 67 5q25 0 52 -3 q128 -16 217 -102q89 -85 109 -217l2 -7q4 -34 4 -69.5t-4 -73.5q-17 -128 -100 -222.5t-205 -137.5q-79 -29 -169 -29q-23 0 -46 2q-119 12 -219 76q-124 81 -195 235q-65 140 -65 341q0 20 1 40zM180 1071q-2 -11 3.5 -19.5t15.5 -9.5q9 -3 16.5 2.5t9.5 16.5q8 29 37 82 q4 8 2 17.5t-10 15.5q-9 4 -18.5 1t-14.5 -12q-15 -25 -25 -48.5t-13 -34.5zM261 1219.5q1 -9.5 9 -15.5t17.5 -5t15.5 9q3 4 9 10.5t24.5 25t38.5 34t49.5 32t58.5 24.5q26 8 57 8h8q35 -1 68 -15q20 -10 31 12q8 24 -12 31q-48 20 -92 20q-11 0 -21 -1q-54 -6 -101 -29 t-81.5 -51.5t-54 -49t-19.5 -22.5q-6 -8 -5 -17.5zM496 258q-3 -9 2 -17t14 -10h1q15 -3 33 -3.5t56 1.5t77.5 21.5t70.5 54.5q17 17 -2 33q-6 6 -16.5 5.5t-16.5 -7.5q-34 -38 -82 -53q-38 -12 -65 -12q-7 0 -14 1l-32 4q-9 3 -17 -2.5t-9 -15.5z" />
<glyph unicode="H" horiz-adv-x="1134" d="M20 721q0 59 37 106q4 280 27 461q7 68 62 112q46 37 103 37q10 0 21 -1q68 -6 112 -62q37 -47 37 -104q0 -10 -1 -21q-20 -157 -23 -362l334 -2q-3 188 -22 364q-1 11 -1 21q0 56 36 104q43 56 112 62q11 1 21 1q56 -1 103 -37q55 -44 62 -112q25 -214 25 -454 q49 -49 49 -117q0 -70 -49 -119q-1 -51 -2.5 -102.5t-3 -94t-3.5 -81.5t-3.5 -68.5t-2.5 -51.5t-2 -34l-1 -12q-4 -69 -58 -114q-49 -40 -109 -40h-14q-69 6 -114 60q-40 47 -40 106q0 8 1 16q10 158 16 369h-334q3 -93 7 -185t7 -138l3 -46q1 -8 1 -16q-1 -58 -41 -106 q-46 -54 -114 -60h-14q-60 0 -108 40q-54 45 -60 114v12q-1 12 -2.5 35t-3 53.5t-3.5 71t-3.5 84.5t-3.5 97.5t-3 106.5q-37 47 -37 107zM115 1024q0 -10 6.5 -17.5t15.5 -7.5q11 0 18 7.5t7 17.5q0 12 2 45q0 9 -7 17t-16 8t-16.5 -7t-7.5 -16zM117 1143q0 -9 7 -17t17 -8 q9 0 16 7.5t7 17.5q4 83 22 123q24 53 93 67q9 3 14 11.5t2 17.5q-1 9 -9.5 14.5t-19.5 3.5q-90 -20 -123 -94q-22 -48 -26 -143zM537 807q0 -9 6.5 -16t15.5 -7l154 -2q9 0 16.5 7t7.5 16q0 10 -7.5 17t-16.5 7q-64 0 -152 2q-9 0 -16.5 -7t-7.5 -17zM750 1151 q0 -10 7.5 -16.5t18.5 -6.5q9 1 15 9.5t6 17.5q-5 36 -5 65q0 35 7 60q20 58 82 82q9 3 13 12.5t1 18.5q-3 8 -12.5 12t-18.5 0q-82 -30 -110 -111q-9 -32 -8 -74q-1 -32 4 -69z" />
<glyph unicode="I" horiz-adv-x="403" d="M22 804q2 290 25 484q7 68 62 112q46 37 103 37q10 0 21 -1q69 -6 113 -62q37 -47 36 -104q0 -10 -1 -21q-21 -180 -22 -455v-81q1 -211 5 -309q6 -116 11 -219v-3q1 -8 1 -16q0 -58 -40 -106q-46 -54 -115 -60h-14q-61 0 -109 40q-54 45 -59 114v3q-6 100 -12 228 q-5 102 -5 309v110zM70 1051q0 -11 7 -18t17 -7q9 0 16 7.5t7 17.5q0 16 2 45q1 9 -5.5 16.5t-15.5 7.5q-22 3 -26 -20zM78 1208q0 -10 6.5 -17t15.5 -7q11 0 18 7t7 17q0 5 0.5 14t7 31.5t17.5 39t36.5 29t59.5 9.5q9 -2 16.5 4.5t7.5 16.5q2 9 -4.5 16.5t-15.5 7.5 q-12 1 -23 1q-35 1 -61 -11q-36 -16 -52 -41.5t-25 -52t-10 -45.5z" />
<glyph unicode="J" horiz-adv-x="1013" d="M23 549q6 69 58 113q47 41 106 41q7 0 14 -1q69 -4 113 -56q41 -48 41 -108q0 -7 -1 -14q-1 -16 -1 -31q0 -106 67 -145q26 -16 57 -16q38 0 66 14q49 25 79.5 86t30.5 154q0 48 0.5 111t1.5 126t2 128t2.5 121t2.5 99.5t2 70.5v26q0 69 49 116.5t118 47.5 q68 -2 115.5 -51.5t46.5 -116.5l-1 -20q0 -19 -0.5 -54.5t-1.5 -82.5t-2 -107.5t-1.5 -124.5t-1 -140.5t-0.5 -148.5q0 -197 -81.5 -334t-213.5 -203q-98 -49 -206 -49h-13q-120 3 -217 59q-116 67 -180 193q-53 104 -53 240q0 28 2 57zM54.5 533.5q-0.5 -21.5 3.5 -35.5 l5 -13q10 -21 31 -14q22 11 12 31q-1 3 -2.5 9t-1.5 21.5t5 29.5t22.5 30t46.5 26q9 3 13 12.5t1 18.5t-11 13.5t-17 1.5q-43 -14 -68.5 -38t-32 -47.5t-7 -45zM479 274q0 -10 7 -17t18 -7h8.5t21.5 2.5t31.5 7.5t36.5 16t38.5 26t35 40.5t29.5 56.5q3 7 -1 16.5t-12 12.5 q-9 4 -18 0t-12 -12q-13 -34 -33.5 -59t-41.5 -36t-40 -17t-31 -6l-12 -1q-9 0 -16 -7t-9 -16zM711 1083q0 -9 7 -15.5t17 -6.5q9 0 16 6.5t7 15.5v41q0 9 -7 16t-16 7q-10 0 -17 -7t-7 -16v-41zM711 1214q0 -9 7.5 -15.5t16.5 -4.5q9 0 16 7.5t7 17.5v11.5t4.5 25.5 t12.5 32t28 24.5t47 8.5q9 0 16.5 6.5t7.5 15.5q0 10 -6.5 17.5t-15.5 7.5h-10q-37 0 -63 -13q-30 -15 -42.5 -38t-19 -46.5t-6.5 -40.5v-16z" />
<glyph unicode="K" horiz-adv-x="1030" d="M21 804q1 290 24 484q9 69 63 112q46 37 104 37q9 0 19 -1q69 -8 113 -63q37 -46 37 -101q0 -11 -2 -23q-18 -154 -21 -344l344 463q39 57 109 67q13 2 26 2q54 0 99 -34q56 -41 66 -109q2 -13 2 -27q0 -53 -33 -98l-320 -432l328 -473q31 -44 31 -94q0 -15 -3 -31 q-12 -68 -69 -108q-44 -31 -94 -31q-15 0 -31 3q-68 12 -108 69l-347 497q2 -97 6 -194t8 -145l3 -48v-14q0 -60 -40 -108q-45 -54 -114 -60h-11q-63 0 -112 40q-53 44 -59 114v3q-7 101 -13 229q-5 110 -5 338v80zM94 1034q-1 -40 -1 -77q0 -111 7 -197q0 -9 8 -15.5 t17 -5.5q10 0 16 7.5t6 17.5q-6 126 -6 222v46q7 175 39 295q2 9 -3.5 18.5t-14.5 10.5q-9 3 -17.5 -2.5t-11.5 -14.5q-32 -125 -39 -305zM109 666l8 -68q1 -10 9 -16t17 -4t15.5 9.5t5.5 16.5q-4 25 -8 66q-3 22 -27 22q-9 -2 -15 -9.5t-5 -16.5zM440 921q2 -10 11 -14 q18 -14 32 4q0 2 35.5 53t101 138.5t125.5 161.5q14 18 -4 32t-32 -4q-59 -73 -125.5 -161t-103.5 -139l-36 -52q-6 -9 -4 -19z" />
<glyph unicode="L" horiz-adv-x="1050" d="M23 806q1 288 22 480q7 70 61 114q46 38 102 37q10 0 21 -1q69 -8 113 -62q38 -48 38 -106q0 -8 -1 -17q-22 -197 -22 -502q0 -186 8 -413h497q69 0 118.5 -49t49.5 -119q0 -69 -49.5 -118.5t-118.5 -49.5h-657q-66 0 -115.5 47.5t-50.5 114.5v3q-5 99 -11 226 q-5 107 -5 330v85zM94 1092q0 -10 8 -17.5t17 -7.5q10 0 17 7t7 18v38q0 11 -7 18t-17 7q-9 0 -17 -7.5t-8 -17.5v-38zM94 1223q2 -10 9.5 -16t17.5 -5q9 0 15 7.5t5 17.5v11.5t4.5 26.5t13.5 32.5t29 24.5t48 9q9 0 16.5 7t7.5 16q0 10 -6.5 17t-15.5 7h-10q-36 0 -62 -13 q-30 -15 -43.5 -35t-20.5 -47.5t-7.5 -39t-0.5 -20.5zM764 260q7 -21 29 -14q4 1 11.5 3t27 2.5t35.5 -4.5t31.5 -21.5t21.5 -43.5q1 -9 9 -14.5t17 -3.5q11 2 16.5 10.5t2.5 18.5q-9 42 -31.5 67.5t-48 32t-50 6.5t-41 -4.5t-16.5 -5.5q-9 -1 -13 -10.5t-1 -18.5z" />
<glyph unicode="M" horiz-adv-x="1398" d="M20 380q-1 32 0 64q0 96 6 194q8 130 35.5 319.5t75.5 367.5q11 38 37.5 68t63.5 45q31 13 62 13q32 0 66 -15q64 -28 91 -93l241 -618l244 614q14 38 44 66.5t69 38.5q24 7 46 7q41 0 81 -23q60 -35 80 -103q48 -178 76.5 -364.5t34.5 -325.5q6 -128 6 -234q0 -9 -1 -18 q0 -113 -6 -172l-6 -59q-8 -70 -62 -114q-47 -39 -106 -39q-8 0 -16 1q-69 8 -113 62q-38 46 -38 103q0 9 1 19v2q13 107 13 231q0 114 -11 242l-178 -452v-2l-2 -2v-2v-2l-2 -4l-2 -2v-3v-2h-2l-2 -4v-2l-2 -2l-2 -2v-2l-2 -2l-2 -2v-2l-2 -2l-2 -4l-3 -2l-2 -2l-2 -2 l-2 -2v-2l-2 -2l-4 -2l-2 -5l-2 -2h-2l-2 -2v-2l-4 -2l-2 -2l-4 -2v-2h-2l-2 -2l-2 -2l-4 -2l-3 -2h-2l-2 -2l-2 -2h-2l-2 -2h-2l-2 -2h-2l-2 -2h-2h-2l-2 -2l-4 -2h-4l-4 -3l-4 -2h-5l-8 -2l-2 -2h-2h-2h-2h-2h-2l-2 -2h-2h-2h-4h-2h-2h-19h-2h-2h-4h-2h-2l-2 2h-2h-2h-2 h-2h-2l-2 2l-9 2h-4l-4 2l-4 3h-4l-4 2l-2 2h-2h-2l-2 2h-2l-2 2h-2l-3 2h-2l-2 2l-2 2h-2l-2 2h-2l-2 2l-2 2l-2 2h-2v2l-4 2l-2 2l-4 2v2l-2 2h-2l-2 2l-2 5l-5 2l-2 2v2l-2 2l-2 2l-2 2l-2 2l-2 4l-2 2v2l-2 2l-2 2v2l-2 2l-2 2v2l-2 4h-2v2v3l-2 2l-2 4v2v2l-2 2v2 l-178 452q-11 -128 -11 -242q0 -124 13 -231v-2q1 -9 1 -19q0 -57 -38 -103q-44 -54 -113 -62q-8 -1 -16 -1q-59 -1 -107 39q-54 44 -61 114q-3 22 -7 62t-6 166zM84 592q0 -9 6.5 -16t15.5 -7q10 0 17.5 7t7.5 16q-1 7 -1 16q0 26 5 64q0 23 -20 26q-10 1 -18.5 -5 t-8.5 -15zM94 750q0 -10 7 -17.5t16 -9.5q10 0 17 6t7 16q3 36 10 95.5t36.5 201t68.5 234.5q3 7 -0.5 16.5t-11.5 14.5q-9 3 -18.5 -1t-14.5 -12q-40 -96 -69 -232t-38 -224zM928 1180q-2 -11 3.5 -19.5t14.5 -9.5q9 -2 17.5 4t9.5 16l5 18q4 18 13.5 43.5t23.5 51 t37.5 43.5t51.5 19q9 0 15.5 7.5t6.5 16.5t-7.5 16t-16.5 7q-38 -1 -70 -23.5t-50.5 -53.5t-31.5 -62t-18 -52z" />
<glyph unicode="N" horiz-adv-x="1048" d="M22 804q2 290 25 484q2 41 35 86q30 41 84 56q15 6 31 6h36q47 -6 84 -35q56 -45 127.5 -164.5t150.5 -276.5t99 -192q-4 296 -24 481q-1 11 -1 21q0 56 36 104q43 56 112 62q11 1 21 1q58 -1 104 -37q56 -44 62 -112q23 -194 24 -486v-80q0 -230 -5 -334 q-6 -122 -13 -231v-3q-4 -69 -58 -114q-49 -40 -109 -40h-14q-44 4 -80 28.5t-55 61.5l-338 590q1 -121 5.5 -245.5t8.5 -188.5l5 -64q1 -8 1 -16q0 -58 -40 -106q-46 -54 -115 -60h-14q-61 0 -109 40q-54 45 -59 114v3q-6 100 -12 228q-5 102 -5 309v110zM98 1092 q0 -10 7 -17.5t16 -7.5q10 0 17 7t7 18v41q0 9 -7 15.5t-17 6.5q-9 0 -16 -6.5t-7 -15.5v-41zM98 1225q0 -11 7.5 -17.5t17.5 -5.5q9 0 15.5 8t6.5 17v11.5t4 26.5t12.5 32.5t28.5 24.5t48 9q10 0 17 7t7 16q1 10 -5 17t-17 7h-10q-37 0 -63 -13q-30 -15 -43 -37.5 t-19.5 -46t-6.5 -39.5v-17zM489 928q-2 -10 3 -17q35 -60 73.5 -122.5t60.5 -94.5l21 -32q6 -9 16 -11t17 4q9 4 10.5 14t-4.5 19q-78 115 -154 246q-10 19 -32 8q-9 -4 -11 -14zM715 1265.5q-1 -24.5 2 -41.5l4 -16q1 -9 10.5 -14t18.5 -2q9 1 14 10.5t2 18.5 q-1 4 -2.5 11.5t-1 26.5t6 34.5t23 30.5t44.5 19q9 1 14.5 9.5t5.5 17.5q-2 9 -11 15.5t-18 5.5q-43 -7 -69.5 -28.5t-34 -47t-8.5 -50z" />
<glyph unicode="O" horiz-adv-x="1114" d="M20 727q3 152 46 285q29 97 75.5 176.5t109.5 139.5t146 92q76 30 162 30h16q186 -6 309.5 -131.5t176.5 -325.5q33 -130 33 -260v-22q-3 -158 -41 -281q-57 -194 -182 -312t-308 -118q-196 0 -325 120t-183 318q-35 130 -35 267v22zM197 1094q-3 -9 2 -18.5t14 -10.5 q9 -3 18.5 2t10.5 14q4 14 16 37q4 9 1 18.5t-11 12.5q-22 11 -33 -10zM263 1203.5q1 -9.5 9 -15.5t17.5 -5t15.5 9q47 54 98 84q71 42 158 47q10 1 16.5 8.5t6.5 16.5q-4 25 -27 22q-96 -8 -178 -53q-71 -43 -111 -96q-6 -8 -5 -17.5zM356 719v-20q0 -87 23 -173 q23 -85 70 -137.5t114 -52.5q56 0 99 51.5t69 136.5q27 100 27 191v20q0 82 -21 174q-25 91 -68.5 147.5t-103.5 57.5h-2q-57 0 -103 -54q-46 -56 -75 -147q-29 -95 -29 -194zM530 250q-1 -10 5 -17.5t16 -9.5q4 -1 11 -1t28.5 1t42 5.5t48 16.5t50.5 30t45.5 49.5 t36.5 72.5q7 24 -14 31q-9 3 -18.5 -1t-12.5 -13q-15 -46 -42.5 -77.5t-55.5 -44t-54 -18.5t-42 -5l-17 1q-10 1 -17.5 -5t-9.5 -15z" />
<glyph unicode="P" horiz-adv-x="976" d="M22 689q2 130 14.5 294.5t37.5 290.5q9 47 41 82t75 47q126 41 250 41h4q121 0 215 -30q95 -32 166 -89q107 -87 138 -209q12 -46 12 -91q0 -84 -41 -169q-56 -118 -197.5 -217t-371.5 -160q2 -76 5.5 -149t5.5 -108l3 -36q1 -8 1 -16q0 -60 -42 -109q-46 -55 -117 -61 q-8 -1 -16 -1q-61 0 -109 41q-54 46 -59 118q-2 27 -5 74q-4 48 -8 188q-3 105 -3 203q1 34 1 66zM102 946q0 -9 8 -16.5t17 -7.5q10 0 17.5 7.5t7.5 16.5q0 18 2 47q0 10 -7 17.5t-16 7.5q-10 1 -17.5 -5.5t-9.5 -17.5zM114 1106q0 -9 6 -17t15 -8q10 -1 17.5 5t9.5 16 q0 12 5.5 49.5t27.5 90.5t55 63q10 1 14.5 10t1.5 18t-11 14.5t-17 2.5q-30 -9 -53.5 -37.5t-36.5 -61t-21.5 -67.5t-10.5 -54.5t-2 -23.5zM369 836q209 71 258 168q6 12 6 26q-8 17 -23 29q-57 45 -155 45q-30 0 -64 -4q-19 -134 -22 -264zM503.5 819q-3.5 -9 0.5 -18 q5 -9 14.5 -13t18.5 0q6 3 16.5 8.5t38.5 25t52.5 41t50.5 55t40 69.5q7 22 -14 33q-9 3 -18.5 -1t-12.5 -13q-12 -31 -34.5 -60.5t-45.5 -49.5t-44.5 -35t-35.5 -23l-14 -7q-9 -3 -12.5 -12z" />
<glyph unicode="Q" horiz-adv-x="1202" d="M20 727q3 152 46 285q29 97 75.5 176.5t109.5 139.5t146 92q76 30 162 30h16q186 -6 309.5 -131.5t176.5 -325.5q33 -130 33 -260v-22q-3 -158 -41 -281q-4 -17 -17 -51l92 -88q51 -47 54 -117v-7q0 -66 -45 -114q-47 -51 -116 -53h-4q-67 0 -116 47l-55 51 q-122 -98 -283 -98q-196 0 -325 120t-183 318q-35 130 -35 267v22zM186 1094q-3 -9 2.5 -18t14.5 -11q9 -3 18 2t10 14q5 14 17 37q5 9 2 18.5t-12 12.5q-22 11 -33 -10zM253 1203.5q1 -9.5 9 -15.5t17.5 -5t15.5 9q44 51 98 84q71 42 158 47q22 3 22 25q-4 25 -26 22 q-98 -8 -176 -53q-66 -39 -113 -96q-6 -8 -5 -17.5zM356 719v-20q0 -87 23 -173q23 -85 70 -137.5t114 -52.5q9 0 25 4l-49 45q-51 47 -53 117q-1 4 -1 7q0 65 45 112q44 47 108 53h17q54 0 99 -33q4 25 4 74v20q0 82 -21 174q-25 91 -68.5 147.5t-103.5 57.5h-2 q-58 0 -103 -54q-47 -56 -75 -147q-29 -95 -29 -194zM530.5 516q-0.5 -16 3 -30t9 -27t12 -23.5t12 -18t9.5 -11.5l4 -5q17 -14 34 0q6 7 6 17t-6 16l-4 5q-4 5 -9.5 13t-11 19t-8 23.5t-1.5 26t9.5 28t24.5 26.5q8 6 9 15.5t-5 17.5q-14 18 -32 4q-19 -15 -32 -32 t-18 -32.5t-5.5 -31.5z" />
<glyph unicode="R" horiz-adv-x="1005" d="M22 690q1 140 14.5 302t39.5 288q9 46 41 80.5t76 48.5q128 41 251 41h4q121 0 214 -30q95 -32 167 -89q105 -85 140 -211q11 -46 11 -92q0 -86 -40 -168q-74 -155 -278 -266q87 -67 166 -148t115 -127t36 -49q30 -44 30 -95q-1 -17 -3 -33q-12 -70 -70 -109 q-46 -31 -98 -31q-16 0 -32 2q-70 12 -110 72q-5 8 -15 21.5t-43.5 52.5t-69 75t-89.5 80.5t-108 77.5q1 -33 2.5 -65t3 -54.5t2.5 -40.5t1 -27l1 -10q1 -8 0 -16q0 -62 -40 -110q-46 -54 -116 -58q-8 -1 -16 -1q-62 0 -111 41q-55 46 -59 116q-1 1 -6 72.5t-9 195.5 q-3 96 -2 202v62zM106 969q0 -9 7.5 -17t17.5 -8q9 0 17 8t8 17v47q3 22 -23 26q-9 0 -16.5 -6.5t-7.5 -15.5zM115 1130q0 -11 6.5 -18.5t15.5 -7.5q11 -2 19 5t8 17q1 7 2 19.5t7.5 45t15.5 58t26.5 49t38.5 29.5q9 3 14 12.5t2 18.5q-7 22 -30 16q-30 -9 -53.5 -37 t-36.5 -62.5t-21.5 -67.5t-10.5 -55zM371 840q210 71 260 168q6 12 6 26q-6 15 -23 29q-56 46 -152 46q-32 0 -69 -5q-15 -104 -22 -264zM515.5 821.5q-3.5 -9.5 0.5 -18.5q11 -21 33 -10q6 3 16.5 8.5t39.5 24t53.5 40t50.5 55.5t39 70q4 9 0 18.5t-13 12.5q-22 10 -33 -12 q-18 -49 -61.5 -92.5t-78.5 -62.5l-34 -19q-9 -5 -12.5 -14.5z" />
<glyph unicode="S" horiz-adv-x="1019" d="M33 922q-12 54 -12 105q0 119 67 220q68 106 205 164q101 41 225 41h17h6q107 -5 203 -47.5t159 -118.5q39 -48 39 -107q0 -8 -1 -16q-6 -69 -60 -112q-48 -39 -107 -39q-8 0 -17 1q-70 6 -114 60q-34 40 -117 43h-4h-14q-45 0 -88 -16q-38 -15 -53 -39q-11 -16 -11 -38 q0 -14 4 -30q2 -10 19.5 -22t57 -30t64.5 -28.5t81 -33.5q70 -29 106.5 -45t90 -45t91 -61.5t64.5 -72.5q65 -94 65 -205q0 -19 -2 -38q-9 -98 -59 -181q-50 -84 -135 -141q-129 -90 -295 -90q-27 0 -55 2q-131 11 -222 61q-81 41 -145 119q-36 45 -36 101q0 11 2 23 q8 70 63 112q45 36 101 36q11 0 22 -2q69 -8 112 -63q11 -15 35 -27q39 -21 98 -26q11 -1 21 0q64 0 108 31q20 13 39 39q13 26 13 34q0 18 -7 25q-3 5 -8.5 10t-14 10.5t-17 10.5t-22 11.5t-24 11.5t-28 12.5l-28 12t-30.5 13t-30 12.5q-41 17 -62.5 26t-60 26t-60 29 t-54.5 31.5t-52.5 36.5t-44 40.5t-39.5 47.5t-28.5 53.5t-20.5 62.5zM90.5 268l3.5 -21v-1q3 -9 11.5 -14.5t17.5 -2.5t14 11.5t2 17.5q-1 4 -2 10t1 22t9.5 29.5t27 27t50.5 18.5q22 4 19 28q-1 9 -9.5 15t-17.5 4q-43 -7 -71.5 -26.5t-39 -38t-14 -44.5t-2 -35z M151 1205.5q1 -9.5 9 -15.5q7 -6 18 -4.5t15 10.5l7 8q7 9 20.5 22t32.5 28.5t45.5 30.5t56.5 27q31 12 69 18q26 4 52 4q13 0 26 -1q22 0 26 23q0 9 -6.5 16.5t-15.5 7.5q-13 1 -27 1q-48 1 -94 -11q-59 -14 -99 -37.5t-70.5 -49t-45 -42t-14.5 -18.5q-6 -8 -5 -17.5z M659 305q14 -17 33 -6l8 7q8 6 19.5 17.5t24 27t20.5 35t10 40.5t-8 46t-33 48q-7 8 -17 8t-18 -8q-6 -6 -6 -16t6 -17q21 -21 25 -44t-4.5 -40.5t-20 -32t-22.5 -22.5l-10 -8q-20 -16 -7 -35z" />
<glyph unicode="T" horiz-adv-x="1028" d="M20 1270q0 69 49.5 117.5t118.5 48.5l320 -2q28 4 45 2l10 -2l299 -2q69 0 117.5 -49.5t48.5 -118.5t-49.5 -117.5t-118.5 -48.5h-170q-11 -174 -11 -375q0 -252 17 -546v-3v-8q0 -64 -44 -112q-46 -51 -115 -54h-8q-65 0 -113 44q-52 48 -54 118q-1 21 -3 58t-6 148 q-4 110 -6 218q-1 61 -1 135v116q2 143 8 263l-168 2q-69 0 -117.5 49.5t-48.5 118.5zM70 1249q0 -10 7 -16t17 -6q9 0 16 7.5t7 16.5q2 1 0 11.5t3.5 27t13 32.5t27.5 26.5t48 9.5q10 -1 17 5t7 17q1 9 -5 16t-17 9h-10q-37 1 -63 -13q-30 -16 -42.5 -39.5t-19 -47 t-6.5 -39.5v-17zM406 764q-1 -43 -1 -83q0 -119 7 -210q3 -22 26 -22q9 2 15.5 8.5t5.5 15.5q-7 92 -7 208q0 39 1 81q0 151 12 289q0 9 -6.5 16.5t-16.5 7.5q-9 1 -15.5 -5t-8.5 -15q-12 -141 -12 -291zM420 379l2 -74q2 -9 9.5 -15t17.5 -5q23 4 20 26l-2 66 q1 9 -5.5 16.5t-15.5 7.5q-23 0 -26 -22z" />
<glyph unicode="U" horiz-adv-x="1030" d="M41 1272q7 68 61 110q46 36 104 36q10 0 19 -1q67 -9 109 -63q37 -47 38 -106q0 -8 -1 -17v-3q-28 -225 -28 -411q0 -86 6 -165q26 -333 167 -333q53 0 90 50t53.5 130.5t23.5 177.5q5 65 5 129q0 32 -2 65q-4 97 -9.5 178t-11 131t-6.5 51q-1 11 -1 21q0 56 36 102 q42 54 111 63q11 1 21 1q54 0 100 -36q54 -43 61 -110q1 -2 6 -44.5t9 -117.5q5 -76 7 -170q0 -20 1 -40q0 -76 -6 -160q-8 -106 -24.5 -211.5t-53 -202t-87.5 -171t-132 -120t-183 -47.5h-8h-10q-319 7 -431 425q-55 207 -55 486q0 173 21 373zM66 1014q0 -10 7 -17.5 t15 -7.5q9 0 17 7.5t8 17.5q0 16 2 45q0 8 -7 15t-16 7q-7 1 -14.5 -4.5t-7.5 -13.5zM80 1165q0 -11 6 -17t16 -5q9 0 16 7t7 17v16.5t5 37.5t14 48t30 40t51 22q9 1 15 8.5t6 16.5q-1 9 -9 14.5t-16 5.5q-42 -5 -72 -28.5t-43 -53.5t-19.5 -59.5t-6.5 -49.5v-20zM489 227 q0 -9 8 -15.5t17 -6.5q7 0 19.5 1.5t45.5 12t59 26.5t49.5 50.5t29.5 79.5q2 9 -4.5 17t-16.5 9q-9 1 -16.5 -5t-7.5 -15q-4 -34 -22 -60t-40.5 -38.5t-45 -20t-37.5 -8.5l-15 -2q-9 0 -16 -8t-7 -17zM700 1206q0 -10 7 -17t16 -7q11 0 18 7t7 17q0 5 0.5 14t6.5 31.5 t16 40.5t31.5 34.5t51.5 19.5q9 2 15 8.5t5 15.5q0 10 -7.5 16.5t-18.5 6.5q-41 -5 -71.5 -26t-44.5 -47.5t-22 -52.5t-9 -43z" />
<glyph unicode="V" horiz-adv-x="1048" d="M20 1176q0 66 9 122q9 69 64 112q45 36 99 36q11 0 23 -2q69 -6 111 -62q35 -46 36 -101q0 -12 -2 -24q-2 -16 -2 -81q0 -119 18.5 -277t51.5 -295q55 -235 78 -264q23 30 78 209q51 151 79.5 343t28.5 374q0 69 49 118.5t119 49.5q69 0 118.5 -49.5t49.5 -118.5 q0 -203 -33 -424t-90 -398q-68 -205 -170.5 -324.5t-232.5 -119.5l-35 2l-12 4q-86 16 -157 92t-118 182.5t-80 245.5q-38 160 -59 339t-21 311zM78 1202l2 -18q2 -9 8.5 -16t15.5 -7q10 1 16.5 9.5t6.5 17.5q-1 6 -1.5 15t2 34.5t9 46t23.5 40.5t43 28q22 7 16 30 q-3 9 -12.5 13.5t-18.5 1.5q-36 -11 -60.5 -37t-33.5 -55t-13 -57t-3 -46zM80 1092l2 -48q0 -9 6.5 -15.5t15.5 -6.5q10 0 17.5 6.5t7.5 15.5q0 19 -2 52q-2 9 -9.5 15t-17.5 5q-9 0 -15.5 -7.5t-4.5 -16.5zM737 1147q0 -9 7.5 -16.5t17.5 -6.5q9 0 15.5 7t6.5 16 q0 102 27 147q24 46 82 49q9 0 15.5 8t6.5 17t-7 16t-17 7q-82 -3 -123 -72q-31 -59 -31 -155v-17z" />
<glyph unicode="W" horiz-adv-x="1398" d="M20 1050q2 131 5.5 170t7.5 76v2q7 69 61 113q46 38 104 38q9 0 19 -1q69 -6 113 -60q38 -46 38 -103q0 -9 -1 -19v-2q-5 -40 -9 -92q-2 -37 -2 -121v-81q2 -148 19 -296q7 14 38 83t58.5 126t70.5 117t81 81q28 16 61 19h31q33 -3 61 -19q38 -21 81 -81t70.5 -117 t58.5 -126t38 -83q21 184 21 348q0 128 -13 242v2q-1 9 -1 19q0 57 38 103q44 54 113 60q9 1 19 1q57 0 103 -38q54 -44 62 -113v-2q14 -124 14 -268q0 -134 -12 -286q-26 -319 -106 -617q-19 -68 -79 -103q-39 -23 -80 -23q-22 0 -46 7q-82 22 -111 94l-246 471l-245 -471 q-32 -73 -113 -94q-23 -7 -46 -7q-41 0 -80 23q-60 35 -79 103q-47 173 -74.5 357.5t-35.5 310.5q-7 106 -7 216v41zM72 1145q0 -9 6.5 -16t15.5 -7q10 0 17.5 7t7.5 16v23q0 84 20 128q21 47 76 50q9 0 16 7t7 17q0 9 -7.5 16t-17.5 7q-81 -3 -117 -76q-24 -52 -24 -150 v-22zM80 1051l4 -45q0 -9 7.5 -17t17.5 -8q9 0 15.5 8t6.5 17q0 18 -4 49q-1 10 -9 16t-18 6q-9 -2 -15 -9.5t-5 -16.5zM498 780q-2 -9 4 -17t16 -9q9 -2 17.5 3.5t9.5 14.5q11 83 65 156q48 66 95 76q9 2 14 10t2 18q-2 9 -10.5 14.5t-18.5 2.5q-64 -14 -121 -95 q-59 -80 -73 -174zM1108 1311q-10 -30 -10 -71q0 -45 12 -103q3 -11 11.5 -16.5t17.5 -2.5q9 1 14.5 9.5t3.5 19.5q-12 52 -12 92q0 33 8 57q16 52 72 64q9 3 14 11.5t2 17.5q-1 9 -10.5 14.5t-18.5 3.5q-83 -21 -104 -96z" />
<glyph unicode="X" horiz-adv-x="1042" d="M23 1311q12 68 69 108q44 31 95 31q15 0 31 -3q70 -12 108 -69q58 -83 196 -291q95 148 195 291q40 57 108 69q16 3 31 3q50 0 94 -31q57 -40 69 -108q3 -16 3 -31q0 -50 -31 -94q-142 -202 -274 -418q83 -139 155 -271t103 -195l31 -62q16 -35 16 -71q0 -29 -10 -58 q-23 -66 -86 -95q-35 -16 -71 -16q-29 0 -58 10q-66 23 -95 86q-63 133 -180 342q-51 -91 -96.5 -178t-65 -125.5t-20.5 -38.5q-28 -63 -94 -86q-29 -10 -58 -10q-36 0 -71 16q-63 29 -86 95q-10 29 -10 58q0 36 16 71q103 216 289 528q-125 205 -275 418q-31 44 -31 94 q0 15 3 31zM94 1223l2 -2q19 -56 62 -80l8 -4q7 -5 17 -2t14 12t0.5 18.5t-11.5 14.5h-4q-27 17 -43 57v2q-7 22 -7 40.5t7 33.5l4 6q4 9 2 18.5t-10 14.5q-23 11 -33 -9q-4 -4 -4 -8l-2 -2q-12 -26 -12 -55q0 -26 10 -55zM158 348q-7 -20 12 -31q9 -3 19 0.5t14 12.5 q0 3 20.5 47t64 122.5t89.5 145.5q6 8 4 18t-10 15q-7 6 -17 4.5t-16 -10.5q-47 -68 -92 -149t-66.5 -126.5t-21.5 -48.5zM514 979q-11 -22 10 -33q8 -4 17 -1t14 11q9 18 25 45q11 18 -11 33q-18 11 -32 -10zM580 1080.5q2 -9.5 10 -15.5q7 -5 18 -3t15 11l14 21 q99 148 154 209q6 6 5 16t-8 16q-19 15 -32 -2q-71 -79 -158 -213l-14 -22q-6 -8 -4 -17.5z" />
<glyph unicode="Y" horiz-adv-x="1050" d="M24 1312q12 67 70 107q43 30 94 30q15 0 32 -3q68 -12 108 -70l219 -317l168 303q34 61 101 81q25 8 49 8q40 0 77 -21q61 -34 81 -102q8 -25 8 -50q0 -40 -21 -78l-611 -1112q-34 -62 -101 -82q-24 -7 -48 -7q-41 0 -80 21q-60 34 -80 101q-7 25 -7 49q0 41 21 80 l263 479l-316 457q-30 44 -30 94q0 15 3 32zM72 1276q3 -56 41 -105q18 -18 34 -2q7 6 8 16t-5 17q-31 41 -31 76v6q0 28 24 59q6 7 5.5 18t-7.5 17q-17 14 -35 -4q-34 -42 -34 -90v-8zM227.5 325.5q3.5 -9.5 12.5 -14.5q9 -4 18 0t12 13q9 16 21 45q7 21 -12 30 q-9 4 -18.5 0.5t-12.5 -12.5l-19 -43q-5 -9 -1.5 -18.5zM283 444.5q2 -9.5 10 -14.5q22 -11 33 10l12 21q78 144 129 207q6 8 5 18t-9 16t-17.5 5t-15.5 -9q-61 -78 -133 -215l-12 -20q-4 -9 -2 -18.5zM731 1319q-11 -22 10 -33q7 -5 17 -2t14 12q29 44 59 56h3q16 7 33 7 t36 -7q9 -3 18.5 1t12.5 13t-1 18.5t-13 12.5q-26 9 -51 9q-28 0 -54 -11h-2q-50 -20 -82 -76z" />
<glyph unicode="Z" horiz-adv-x="1062" d="M88 1235q-3 15 -3 30q-1 50 31 94q40 57 109 68q83 13 207 19q47 2 96 2q81 0 168 -6q103 -9 176 -37l11 -4q147 -64 147 -203v-6q0 -42 -20 -90q-44 -89 -285 -363q-237 -269 -319 -387q65 -13 131 -16q20 -1 40 -1q131 0 242 40q28 10 56 10q37 1 73 -17q63 -30 86 -96 q9 -28 9 -55q0 -37 -17 -74q-30 -63 -96 -86q-162 -56 -350 -56q-29 0 -58 1q-115 4 -216.5 30t-168.5 64l-12 6q-105 63 -105 172q0 89 70 207l6 13q13 22 28.5 45t37 51.5t36.5 48.5t44 55t42 51.5t48 57t45 52t49 56.5t45 52l131 149q-35 2 -71 2q-50 0 -104 -4 q-92 -6 -146 -14q-14 -2 -28 -2q-51 0 -97 32q-58 41 -68 109zM170 1272q-2 -9 3.5 -18.5t14.5 -10.5t17.5 4.5t11.5 14.5q9 42 51 60q38 17 73 17h7l37 -2q9 -1 17 5.5t10 15.5q1 10 -5 17t-16 9q-4 0 -11 1t-27 0.5t-39 -3t-43.5 -10t-43.5 -19t-35 -32.5t-22 -49z M311 668q-14 -21 4 -35q8 -6 17.5 -5t15.5 9l33 39q6 8 5 17.5t-9 15.5t-17.5 5t-15.5 -9zM398 759q1 -10 8 -16q19 -15 32 2l150 179l112 135q14 17 -2 33q-7 6 -17.5 5.5t-16.5 -7.5l-113 -136l-148 -178q-6 -7 -5 -17zM784 311q3 -9 12.5 -14t18.5 -2q32 8 56 5t41 -14.5 t28 -24t16 -22.5l5 -10q3 -9 12 -12.5t18 0.5q9 3 13 12.5t0 18.5q-1 2 -2 5t-6 11.5t-11 17t-16 19t-21.5 19t-27.5 15.5t-33 10.5t-39.5 2.5t-46.5 -8q-9 -1 -14 -10.5t-3 -18.5z" />
<glyph unicode="[" />
<glyph unicode="\" horiz-adv-x="991" d="M65.5 1286.5q-11.5 -55.5 20.5 -102.5q55 -83 117 -188.5t116.5 -208t108 -206.5t96 -192t75 -157t51.5 -108l18 -40q22 -53 74.5 -74t105.5 2q52 23 72.5 77t-2.5 106q-36 80 -97 210.5t-221 435.5t-287 494q-31 47 -86.5 58.5t-101.5 -19.5q-48 -32 -59.5 -87.5z" />
<glyph unicode="]" />
<glyph unicode="^" />
<glyph unicode="_" />
<glyph unicode="a" horiz-adv-x="1030" d="M23 340q-3 22 -3 43q0 64 23 123l2 10q37 96 118 165t199 93q64 12 120 13q92 0 159 -35q-9 34 -25 63l-8 12l-6 7q-23 32 -84 32h-14q-84 -3 -152 -43l-22 -12q-47 -40 -108 -40q-7 0 -14 1q-70 5 -114 57q-39 48 -39 107q0 8 1 17q6 70 59 114q42 33 75 51 q145 78 304 84h19q218 0 347 -153l8 -11q28 -35 41 -61q59 -109 83 -263q18 -115 18 -225q0 -38 -2 -75q-8 -99 -29 -187q-36 -128 -119 -178l-8 -4q-40 -18 -84 -18h-12h-6q-45 3 -82 22q-42 -22 -97 -35q-41 -11 -94 -14q-15 -1 -30 -1q-113 0 -201 41q-98 46 -158 128 q-56 77 -65 172zM106 463q-2 -11 4.5 -19.5t16.5 -9.5q9 -2 17.5 4t9.5 15q0 5 6.5 27t31.5 61t63 71t111 52q51 14 111 15q27 0 55 -3q9 -2 17 4.5t8 15.5q1 9 -5 17t-15 10q-30 3 -59 3q-43 0 -82 -6q-65 -10 -108 -33t-77 -51.5t-53 -59t-31.5 -56t-16.5 -41.5zM133 989 q14 -17 33 -6q8 6 22 15.5t58 32t88 38.5q46 15 108 25q34 5 66 5q27 0 53 -3q10 -1 17.5 5t9.5 15q1 10 -4.5 17.5t-16.5 9.5q-30 4 -62 4q-33 -1 -67 -5q-67 -10 -118 -29t-93.5 -39.5t-64.5 -35.5l-23 -16q-17 -14 -6 -33zM358 393q-4 -20 4 -31q17 -26 86 -26h15 q28 2 42 7t30 22q2 10 2 19q0 30 -29 46q-28 15 -60 16q-11 0 -22 -2q-52 -11 -68 -51zM412 268q0 -23 22 -26q7 -1 17.5 -1.5t40 2.5t54 11.5t48.5 29.5t33 52q3 9 -1.5 18.5t-13.5 10.5q-23 7 -30 -15q-10 -33 -46 -48q-34 -14 -63 -14h-4l-31 1q-9 1 -16.5 -5.5 t-9.5 -15.5zM626.5 1089.5q3.5 -9.5 12.5 -12.5q15 -6 27 -12q4 -2 13 -6t13 -6q7 -5 17 -2t14 12q4 8 2 17t-10 14q-6 4 -17 8.5t-12 5.5q-16 9 -29 12q-23 10 -30 -12q-4 -9 -0.5 -18.5z" />
<glyph unicode="b" horiz-adv-x="1046" d="M26 974q12 270 48 386q22 66 84 98q36 19 74 19q26 0 53 -9q66 -20 98 -81q19 -36 19 -74q0 -26 -9 -53q-15 -54 -20 -117q69 33 166 33q45 0 96 -7q151 -24 245 -124t130 -248v-9q16 -70 16 -150q0 -42 -4 -87q-13 -131 -61 -236q-63 -143 -173 -227q-103 -78 -237 -78 h-19q-77 4 -145 29q-39 -33 -113 -39q-31 0 -45 4l-22 4q-118 40 -150 230q-20 116 -26 247q-10 131 -10 280q0 100 5 209zM94 786q0 -9 7.5 -15.5t17.5 -6.5q9 0 15.5 6.5t6.5 15.5q0 134 11 269q18 175 55 293q3 9 -2.5 17.5t-14.5 10.5q-21 7 -28 -14q-41 -126 -58 -303 q-10 -125 -10 -273zM98 672l4 -47q0 -9 7 -17t16 -8t17 8t8 17q-3 18 -5 49q0 10 -7 16t-17 6t-16.5 -7.5t-6.5 -16.5zM355.5 309.5q-1.5 -10.5 4.5 -18.5q21 -27 45 -45t47 -25.5t46.5 -10t45 1t41 9t35 13.5t27 14.5t18.5 11.5l7 4q8 6 9 16.5t-5 18.5t-15.5 9t-17.5 -5 l-5 -3q-6 -4 -15 -9.5t-22 -12t-28 -11t-32 -7.5t-35.5 -1t-36.5 8t-37 20t-35 35q-13 16 -32 4q-8 -6 -9.5 -16.5zM449 446q0 -45 18 -67l2 -4q29 -29 76 -29h3q58 0 105 103q29 67 35 137q2 22 2 44q0 44 -8 85v6q-24 105 -98 117q-8 1 -16 1q-42 0 -66 -37 q-29 -44 -41 -122q-12 -89 -12 -234zM575 922q-4 -22 19 -29q39 -11 68 -36t42.5 -50.5t22 -54.5t9.5 -41.5t1 -18.5q0 -9 7 -15.5t16 -6.5q10 0 17 7t7 17q0 8 -1.5 21.5t-11.5 50t-27 67t-53 61.5t-85 44q-10 3 -19 -2t-12 -14z" />
<glyph unicode="c" horiz-adv-x="1042" d="M20 623q7 205 95.5 339.5t226.5 194.5q96 41 199 41q24 0 49 -2q125 -12 229 -84q115 -78 169 -208q34 -82 33 -177q0 -56 -11 -115q-13 -67 -71 -106q-44 -30 -95 -30q-15 0 -31 3q-69 13 -108 71q-29 43 -29 91q0 17 4 35q4 24 4 46q0 74 -53 114q-33 20 -76 26h-13 l-67 -12q-51 -22 -83.5 -82t-35.5 -156v-10q0 -109 64 -188q29 -40 67 -60q36 -18 66 -18h7l91 37q46 36 102 36q11 1 22 -1q69 -8 112 -64q36 -45 36 -101q1 -11 -1 -22q-8 -69 -64 -112q-141 -109 -298 -109h-17h-2q-116 6 -217 61q-96 53 -168 144q-136 176 -136 399v19z M131 813q-2 -9 4 -18.5t15 -10.5t16.5 5.5t9.5 15.5q7 18 21 49q4 8 0 17t-13 14q-8 4 -16.5 0.5t-13.5 -11.5zM201 952q-11 -18 6 -32q8 -6 17.5 -5t15.5 9q54 74 145 116q84 41 199 40q9 0 15.5 8t6.5 18q0 9 -6.5 15.5t-15.5 6.5q-121 0 -219 -45q-94 -42 -164 -131z M401 306.5q1 -9.5 9 -15.5q46 -37 94 -51q34 -9 62 -9q12 0 24 2q36 6 66 18.5t45.5 24t15.5 13.5q19 16 2 33q-14 17 -33 2q-5 -4 -13.5 -10.5t-35.5 -18t-55 -15.5q-7 -1 -14 0q-23 0 -53 8q-40 10 -77 40q-18 14 -32 -4q-6 -8 -5 -17.5z" />
<glyph unicode="d" horiz-adv-x="1046" d="M25 551q-4 41 -4 81q0 80 16 156l2 9q34 148 128 248t245 124q51 7 96 7q96 0 168 -33q-7 60 -23 117q-9 27 -9 52q0 38 20 75q32 61 98 81q27 9 53 9q39 0 75 -19q62 -32 83 -98q37 -116 49 -386q5 -109 4 -209q0 -149 -10 -280q-5 -124 -27 -247q-32 -191 -149 -230 l-25 -6q-14 -2 -41 -2q-76 6 -115 39q-68 -25 -145 -29h-19q-131 0 -235 77q-110 83 -174 226q-48 108 -61 238zM311.5 858.5q2.5 -9.5 10.5 -14.5q21 -10 32 8q36 58 82 68q21 5 53 -2q18 -4 52 -21q27 -17 46.5 -36.5t22.5 -29.5q1 -10 9 -15t18 -3q10 1 15.5 10.5 t2.5 18.5q-3 18 -28.5 45.5t-61.5 48.5q-37 22 -65 29q-18 5 -37 5l-37 -5q-66 -13 -113 -88q-4 -9 -1.5 -18.5zM322 350q32 -56 73.5 -85t78.5 -31q11 -1 21 -1q25 0 49 4q32 6 51 17l19 10q8 5 10.5 14.5t-1.5 18.5q-6 8 -15.5 10t-17.5 -2q0 -2 -15 -9t-40.5 -12.5 t-54 -3t-61 25.5t-57.5 67q-4 9 -13.5 12t-16.5 -2q-21 -11 -10 -33zM358 586q6 -70 35 -137q22 -47 50 -75q27 -28 57 -29q1 0 2 1q47 0 76 29l4 4q16 24 16 67v40q0 100 -12 194q-12 78 -41 122q-25 37 -66 37q-8 0 -16 -1q-74 -12 -98 -117v-6q-9 -45 -9 -89q0 -20 2 -40 zM840 1343q35 -114 49 -290q7 -89 7 -192q0 -41 -1 -85q-2 -9 5.5 -16.5t17.5 -7.5q9 0 15.5 6.5t8.5 17.5q1 44 1 86q0 104 -7 195q-15 185 -51 301q-7 20 -29 16q-9 -3 -14 -12.5t-2 -18.5zM885 616q-1 -9 5 -16.5t15 -9.5q9 -1 17 5t10 15q2 27 6 70q0 9 -7 17t-16 8 q-10 1 -17 -5.5t-7 -17.5z" />
<glyph unicode="e" horiz-adv-x="1048" d="M20 623q7 206 98 340t234 194q93 38 192 38q36 0 74 -5q136 -15 244 -100q104 -82 146 -210q21 -62 20 -131q0 -72 -22 -151q-13 -29 -19 -39q-35 -62 -104 -78q-49 -12 -230.5 -34.5t-234.5 -32.5q27 -38 67 -60q41 -18 66 -18h7q45 0 93 37q45 36 101 36q10 1 22 -1 q70 -8 113 -64q36 -45 36 -101q1 -11 -1 -22q-8 -69 -64 -112q-141 -109 -300 -109h-17q-112 3 -219 61q-94 54 -166 144q-110 139 -131 317v2q-5 47 -5 81v18zM123 793q-2 -9 4 -17.5t16 -9.5q9 -2 17.5 4t9.5 16q4 23 18 56q8 23 -12 30q-9 4 -18.5 0.5t-12.5 -12.5z M194.5 938.5q1.5 -10.5 10.5 -14.5q8 -6 17.5 -5t15.5 9q59 81 157 127q91 43 223 49q9 0 16 6.5t7 15.5q0 10 -8 17.5t-17 7.5q-138 -6 -241 -53q-103 -46 -176 -142q-6 -7 -4.5 -17.5zM369 709q44 -1 82 -1q190 0 239 17q1 8 1 16q0 54 -38 84q-29 26 -78 33q-12 2 -24 2 q-36 0 -72 -14q-77 -29 -110 -137zM414 317q-13 -17 2 -32q42 -36 88 -49q30 -8 56 -8q14 0 26 2q36 7 66.5 20t46.5 25t16 14q17 14 2 33q-14 17 -33 2q-5 -4 -13.5 -10.5t-34.5 -19.5q-27 -14 -54 -18q-9 -1 -18 -1q-20 1 -46 7q-36 10 -69 37q-7 6 -18 5.5t-17 -7.5z M709 834.5q-2 -9.5 4 -17.5q19 -29 22 -61.5t-5 -49.5l-7 -18q-10 -21 10 -31q9 -5 19 -1.5t14 12.5q5 10 11 27t3.5 63.5t-28.5 85.5q-4 7 -15 9t-18 -3q-8 -6 -10 -15.5z" />
<glyph unicode="f" horiz-adv-x="856" d="M20 793q0 69 49.5 118.5t118.5 49.5h41v4q0 82 29 176.5t84 169.5q116 157 301 184q12 2 24 2q54 0 101 -35q56 -41 66 -110q2 -12 2 -24q0 -55 -35 -101q-42 -56 -111 -66q-47 -6 -78 -49q-45 -59 -45 -147v-4h25q70 0 120 -49.5t50 -118.5q0 -70 -49.5 -119t-120.5 -49 h-25v-457q0 -69 -50 -118.5t-120 -49.5q-69 0 -118.5 49.5t-49.5 118.5v457h-41q-69 0 -118.5 49t-49.5 119zM72 782q0 -9 7 -15.5t17 -6.5q9 2 16 8.5t7 15.5q0 67 67 88q24 7 17 29q-2 9 -11 14.5t-18 2.5q-102 -30 -102 -136zM287 312.5q0 -66.5 1 -96.5l1 -30 q0 -9 7.5 -15.5t16.5 -6.5t16 7.5t7 16.5q-2 50 -2 116t2 147q0 9 -7.5 16.5t-17.5 7.5q-9 0 -15.5 -7t-6.5 -17q-2 -72 -2 -138.5zM291 555q-1 -9 5 -16t17 -9q9 0 16 7t9 18v33l2 35q0 9 -7 16.5t-16 7.5q-10 0 -17 -6t-7 -16l-2 -35v-35zM313 1114q-1 -10 4.5 -18.5 t14.5 -10.5q21 -3 28 19q2 10 7 26.5t26 61t48.5 80.5t78.5 71t113 46q10 1 16 9t4 19q-7 22 -28 19q-51 -10 -96 -32.5t-76 -52t-56.5 -62t-40.5 -63.5t-25 -56t-14 -40z" />
<glyph unicode="g" horiz-adv-x="1042" d="M23 700q13 115 57 209q64 132 176 211q106 74 244 74h14v-2q62 0 145 -27q42 31 115 37h10q165 0 205 -233q16 -100 25 -246q8 -167 8 -373q0 -293 -135 -448q-118 -137 -322 -158q-25 -2 -50 -2q-63 0 -132 14q-93 17 -176 64q-60 34 -79 100q-8 25 -8 49q0 40 21 78 q32 61 99 81q26 8 51 8q40 0 78 -21q41 -23 82 -31q31 -7 61 -7q10 0 20 1q71 7 101 43q20 24 31 57q-68 -26 -158 -26q-42 0 -90 6q-144 19 -237 101t-132 206l-6 16q-21 71 -21 157q0 30 3 62zM147 848q-3 -9 2.5 -17.5t14.5 -11.5t17.5 2.5t11.5 14.5q8 24 26 59 q5 7 2 17t-12 14q-8 6 -17 3.5t-14 -11.5q-10 -17 -18 -34.5t-10 -26.5zM172 -0.5q3 -9.5 12 -13.5q8 -4 17 -1t14 11l5 7.5t14 16.5t25 17t36.5 9.5t48.5 -5.5q22 -7 29 14q7 24 -17 31q-31 9 -55 9q-7 0 -13 -1q-30 -3 -51.5 -15t-35.5 -25.5t-21 -24.5l-6 -11 q-5 -9 -2 -18.5zM240 996q0 -10 8 -17q19 -15 33 2q58 58 129 82q47 15 98.5 15t107.5 -15q9 -2 17.5 3.5t11.5 14.5q4 23 -18 29q-61 16 -117 16q-60 0 -115 -18q-81 -27 -147 -96q-8 -6 -8 -16zM356 668q-1 -10 -1 -20q0 -40 10 -75l2 -8q23 -65 92 -73q10 -1 19 -1 q95 0 112 146q8 51 8 160q0 22 -12 34q-31 27 -84 27h-4q-68 0 -115 -92q-21 -46 -27 -98zM428 399q0 -9 6.5 -16.5t16.5 -7.5q4 0 10.5 -0.5t26.5 1.5t38.5 6.5t43 16t44 28.5t37.5 45.5t27 64.5q3 9 -2 17t-14 11q-10 2 -19 -3t-10 -15q-10 -39 -32.5 -66t-47 -38 t-47.5 -16.5t-38 -4.5h-15q-9 0 -17 -7t-8 -16z" />
<glyph unicode="h" horiz-adv-x="1060" d="M24 984q12 270 48 386q22 66 84 98q37 19 74 20q26 0 53 -9q66 -19 98 -81q19 -36 19 -75q0 -26 -9 -53q-14 -54 -22 -125q84 37 204 37q387 0 455 -471q12 -81 12 -182q0 -166 -32 -386q-10 -69 -66 -111q-45 -33 -97 -32q-14 0 -28 2q-69 10 -111 66q-33 45 -32 97 q0 14 2 28q29 192 29 332q0 78 -9 139q-25 182 -123 182q-43 0 -72.5 -25.5t-43.5 -71.5t-19.5 -93.5t-5.5 -108.5q0 -83 8 -189q6 -61 6 -114v-22q-2 -62 -14 -107.5t-52 -73t-110 -31.5q-14 -2 -43 2l-20 6q-121 40 -152 230q-16 90 -26 248q-9 127 -9 271q-1 104 4 217z M96 825q0 -9 7 -15.5t16 -6.5q10 0 17 6.5t7 15.5q0 167 17 299q18 149 49 240q3 9 -2 18.5t-14 12.5t-18 -2.5t-11 -14.5q-34 -107 -51 -248q-17 -135 -17 -305zM98 725l4 -86q2 -9 10 -15.5t17 -5.5q9 2 15.5 10t5.5 17q-3 31 -5 82q0 9 -7.5 16t-16.5 7t-16 -8t-7 -17z M578 946q-3 -9 2 -18t14 -10q39 -11 68.5 -35.5t43 -52t21.5 -53.5t9 -43l1 -17q0 -9 8 -16t17 -7q11 0 17 7.5t5 17.5q0 8 -1.5 21.5t-11.5 50t-27 67t-53 61.5t-85 44q-9 3 -17 -2.5t-11 -14.5z" />
<glyph unicode="i" horiz-adv-x="415" d="M22 501q-1 33 -1 72q0 77 3 176q4 149 17 295q7 70 59 116q47 41 109 40h14q69 -6 114 -60q40 -48 41 -108q0 -7 -1 -14q-18 -216 -18 -423t9 -306l9 -99q2 -12 2 -24q-1 -55 -35 -101q-42 -56 -108 -65q-14 -2 -28 -2q-53 0 -98 32q-57 42 -67 111q-2 16 -5 44.5 t-8.5 122.5t-7.5 193zM59 1397q0 64 49.5 109.5t118.5 45.5t118.5 -45.5t49.5 -109.5t-49.5 -109t-118.5 -45t-118.5 45t-49.5 109zM61 823q0 -10 7 -17t16 -7q11 0 18 7t7 17q0 16 2 45q0 10 -6.5 17.5t-16.5 7.5q-9 1 -17 -5.5t-8 -15.5zM68 979q0 -9 7 -16t17 -7 q9 0 17 7t8 16q0 7 0.5 15.5t7 31.5t17.5 39t35.5 28t58.5 9q23 0 26 22q2 9 -4.5 17t-15.5 8q-11 1 -22 1q-35 0 -63 -12q-36 -16 -52.5 -39t-25.5 -55t-10 -44t-1 -21zM92 1382.5q0 -15.5 2 -24.5l2 -10q3 -9 11.5 -14.5t17.5 -4.5q9 3 14.5 11.5t3.5 17.5v1q-2 9 -3 17.5 t2 28.5t12 34.5t33 27t59 14.5q22 4 22 24q-2 11 -8.5 17.5t-15.5 5.5q-39 -2 -68 -12.5t-44.5 -26.5t-25.5 -35t-12 -37.5t-2 -34z" />
<glyph unicode="j" horiz-adv-x="645" d="M23 -139q-2 14 -2 28q0 52 33 96q41 56 110 66q48 5 78 47q47 64 47 150v784q0 69 49.5 118.5t118.5 49.5t118.5 -49.5t49.5 -118.5v-784q0 -84 -28 -177.5t-85 -170.5q-118 -156 -299 -183q-12 -2 -24 -2q-55 0 -101 35q-56 42 -65 111zM174 -25q6 -19 31 -16 q6 2 16.5 6t37.5 22.5t49 43t42.5 70.5t26.5 102q0 9 -6 17t-15 9q-22 0 -26 -22q-4 -47 -20.5 -85t-36 -58.5t-38.5 -34.5t-32 -19l-13 -4q-20 -7 -16 -31zM279 1397q0 65 48.5 110t118.5 45q69 0 118.5 -45.5t49.5 -109.5t-49.5 -109t-118.5 -45q-70 0 -118.5 44.5 t-48.5 109.5zM316 1361l3 -18q3 -9 11.5 -14t17.5 -2q9 2 14.5 10.5t4.5 18.5l-2.5 12.5t0.5 28t10.5 36t32.5 29t61 15.5q23 4 23 26q-2 9 -9.5 16t-17.5 7q-53 -3 -87 -23t-45.5 -46t-15.5 -52t-1 -44zM322 823q0 -10 6.5 -17t15.5 -7q11 0 18 7t7 17q0 16 2 45 q2 9 -5.5 17t-17.5 8q-9 1 -15.5 -5.5t-8.5 -15.5zM326 975q0 -10 6.5 -17.5t15.5 -7.5q10 0 17.5 7t7.5 18q0 5 0.5 14.5t7 32t17.5 39t36.5 28.5t59.5 9q9 -2 16.5 4.5t7.5 15.5q1 9 -5 17t-15 10q-10 1 -20 1q-36 0 -64 -12q-36 -16 -52 -42t-25 -52.5t-10 -45.5z" />
<glyph unicode="k" horiz-adv-x="1187" d="M26 976q12 271 48 384q22 66 84 98q36 19 74 19q26 0 53 -9q66 -20 98 -81q19 -36 19 -74q0 -26 -9 -53q-22 -70 -31 -231q-6 -104 -6 -217q0 -63 2 -128q202 342 496 528q42 27 89 27q17 0 37 -4q68 -15 105 -74q26 -41 26 -88q0 -19 -4 -38q-15 -68 -75 -105 q-152 -98 -284 -268q211 -278 335 -349q61 -35 79 -102q6 -23 6 -45q0 -42 -23 -82q-35 -60 -101 -78q-23 -6 -44 -5q-42 0 -82 22q-161 92 -357 333q-41 -84 -49 -102q-27 -58 -40.5 -85t-37.5 -65.5t-44.5 -55.5t-50.5 -31.5t-67 -16.5q-29 0 -43 4l-20 4 q-116 39 -152 225l-2 7q-18 110 -26 249q-8 119 -8 254q0 111 5 233zM92 803q0 -10 8 -17.5t17 -7.5t16.5 8t7.5 17q-1 22 -1 45q0 107 12 223q14 168 53 293q3 9 -1.5 17.5t-13.5 11.5t-18 -1.5t-12 -13.5q-43 -143 -56 -303q-12 -120 -12 -272zM96 707l4 -70q1 -9 9.5 -15 t17.5 -6q9 2 15 10t5 17q-2 25 -4 66q0 10 -7.5 17t-16.5 5q-23 0 -23 -24zM705 1030q-17 -17 2 -33q19 -15 32 2q5 6 14 15.5t36 33.5t53 42q27 18 64 30q28 9 53 9q8 0 16 -1q9 -1 16.5 5.5t9.5 15.5q1 9 -5 17t-15 10q-11 1 -22 1q-29 0 -59 -9q-42 -13 -76 -35.5 t-61.5 -45.5t-42.5 -40z" />
<glyph unicode="l" horiz-adv-x="397" d="M21 628q-1 44 -1 95q0 102 3 234q4 198 16 393q5 68 57 114q49 43 113 43h8q69 -5 115 -57q43 -48 43 -110v-11q-18 -298 -18 -583.5t9 -422.5l9 -137q1 -11 1 -21q0 -56 -36 -103q-44 -55 -113 -62q-9 -1 -19 -1q-58 0 -104 38q-54 44 -63 113q-2 21 -4.5 59t-8 162.5 t-7.5 256.5zM74 1126q0 -9 6.5 -16.5t15.5 -7.5q10 0 17.5 7.5t7.5 16.5q0 16 2 45q0 24 -23 27q-9 0 -16.5 -6.5t-7.5 -15.5zM74 1290q0 -10 6.5 -17t15.5 -7q11 0 18 7t7 17q0 5 0.5 14.5t7 32t17.5 39t36.5 28.5t59.5 9q9 -1 16.5 5.5t7.5 15.5q1 9 -5 16.5t-15 9.5 q-10 1 -20 1q-36 -1 -64 -13q-36 -16 -52 -41.5t-25 -52t-10 -45.5z" />
<glyph unicode="m" horiz-adv-x="1716" d="M27 492q-8 146 -8 289t8 284q4 69 56 114q47 40 107 40h13q48 -3 85 -29.5t56 -69.5q87 43 221 43q228 -3 344 -135q118 118 289 118q18 0 37 -1q95 -6 170.5 -44t124.5 -90t83 -130.5t51.5 -147t23.5 -159.5q8 -90 8 -146q0 -4 -1 -9q0 -53 -5 -123q-6 -74 -8 -90 t-7 -44v-2q-12 -67 -68 -106q-43 -30 -93 -30q-15 0 -31 3q-67 12 -107 68q-31 44 -30 95q0 14 2 29q1 0 6 32t9.5 83.5t6.5 113.5q1 16 1 33q0 46 -5 93q-7 63 -22.5 115.5t-49 87.5t-82.5 38h-9q-131 0 -165 -280v-33q-2 -76 -6 -162q-5 -72 -5 -123q0 -22 1 -39v-4v-8 q0 -64 -43 -112q-46 -51 -115 -54h-8q-62 0 -109 42q-50 46 -55 114q-4 55 -4 113q0 106 13 225v10v23q0 55 -4 98q-5 52 -18.5 102.5t-44.5 78t-77 28.5q-41 0 -69.5 -23.5t-42.5 -66t-20 -87t-7 -102.5q0 -98 10 -203q5 -87 5 -155q-1 -7 -1 -13q0 -72 -36.5 -118.5 t-116.5 -55.5q-2 0 -20 -1t-19 1q-147 9 -191 223v7q-19 107 -28 252zM61 821l2 -47q0 -9 7 -15.5t16 -6.5t16 6.5t7 15.5v47q0 11 -7.5 18t-17.5 7q-9 0 -16 -7.5t-7 -17.5zM61 952q1 -11 2 -23v-1q0 -9 8 -15.5t17 -5.5q10 2 16 9.5t5 17.5q-1 7 -1.5 19.5t1.5 44t9 56 t26.5 46t48.5 24.5q22 3 22 27q-1 9 -9.5 14.5t-17.5 5.5q-35 -4 -60.5 -21.5t-38 -45.5t-20 -53t-8.5 -56.5t0 -42.5zM322 1038q-11 -18 6 -32q18 -14 32 4q0 1 5.5 7.5t18.5 15.5t30.5 17.5t47 13t62.5 1.5q9 0 17 6.5t8 15.5q0 10 -6.5 17.5t-16.5 7.5q-29 2 -56 -1 t-47 -9.5t-37 -14.5t-28.5 -16.5t-19.5 -16t-12 -12.5zM978 1004.5q1 -9.5 9 -15.5q9 -6 19 -4.5t14 10.5q2 3 6 7t18 14.5t31.5 18.5t46.5 13t62 3q10 -1 17 5t7 15q2 9 -4.5 17t-15.5 8q-13 1 -25 1q-27 -1 -51 -5q-36 -6 -58.5 -17.5t-39.5 -23.5t-24 -21l-7 -8 q-6 -8 -5 -17.5z" />
<glyph unicode="n" horiz-adv-x="1060" d="M29 500q-9 160 -9 305t9 276q5 69 57 115q47 41 108 41h13q48 -3 86 -30t57 -70q92 45 223 45q387 0 455 -471q10 -71 12 -150q0 -20 1 -40q0 -60 -5 -122q-6 -83 -11 -133t-15 -123q-10 -69 -66 -111q-45 -33 -97 -32q-14 0 -28 2q-69 10 -111 66q-34 46 -34 101 q0 12 2 24q29 192 29 332q0 78 -9 139q-25 182 -123 182q-141 0 -141 -299q0 -75 8 -189q5 -79 5 -132.5t-5 -81.5q-17 -97 -102 -123q-22 -6 -49 -9q-28 -4 -39 -2q-149 9 -193 228l-2 6q-16 90 -26 256zM76 786q0 -9 7.5 -15.5t16.5 -6.5t16 6.5t7 15.5v48q0 10 -7 17 t-18 7q-9 0 -15.5 -7t-6.5 -17v-48zM76 942q0 -9 7.5 -15.5t16.5 -4.5q23 3 23 26q-1 7 -1.5 19.5t1.5 45t9 57.5t26.5 47.5t48.5 25.5q10 0 16 7t6 17q-1 10 -9 16.5t-17 6.5q-109 -11 -126 -161q-2 -19 -2 -45q0 -19 1 -42zM351 1049.5q1 -9.5 9 -15.5t17.5 -5t15.5 9 q2 2 6 6.5t19 14t32.5 16.5t47.5 11t63 1q24 0 27 23q1 9 -5.5 17t-15.5 8q-18 2 -36 2q-22 0 -42 -3q-37 -5 -60 -16t-40.5 -22.5t-24.5 -19.5l-8 -9q-6 -8 -5 -17.5z" />
<glyph unicode="o" horiz-adv-x="1056" d="M20 610q0 126 41 238q57 162 181 258q120 92 293 92h14q177 -4 292.5 -100t164.5 -252q30 -98 30 -213v-21q-3 -128 -39 -231q-57 -169 -176.5 -275t-283.5 -106q-180 0 -303 103t-179 272q-35 104 -35 235zM150 877q-3 -10 2 -18.5t14 -10.5q9 -3 17.5 2t11.5 14 q4 14 14 37q10 21 -10 31q-7 5 -17 2t-14 -12zM216 986.5q1 -9.5 9 -15.5q6 -6 16.5 -4.5t16.5 8.5q47 54 98 84q62 38 158 47q9 0 16 7.5t7 16.5q-1 10 -9.5 17.5t-17.5 5.5q-100 -8 -178 -53q-70 -44 -111 -96q-6 -8 -5 -17.5zM356 608v-16q0 -57 19 -113 q22 -64 63.5 -103.5t98.5 -39.5q45 0 82.5 42t58.5 109q21 61 24 134q0 70 -16 122q-41 116 -145 119h-3q-57 0 -98 -34q-42 -34 -63 -93q-21 -61 -21 -127zM481 268q-1 -9 5.5 -16.5t15.5 -7.5h1q13 -1 25 -1q71 0 132 38q72 45 104 137q3 9 -1 18.5t-13 12.5t-18.5 -2 t-12.5 -15q-15 -45 -42.5 -76.5t-55.5 -44t-54 -18t-42.5 -4.5t-16.5 2q-24 0 -27 -23z" />
<glyph unicode="p" horiz-adv-x="1046" d="M26 210q-5 108 -5 209q0 148 10 279q6 137 26 248q32 190 152 230l24 6q12 2 39 2q73 -3 115 -39q80 29 145 29h19q132 0 236 -78q111 -83 174 -226q48 -109 61 -237q4 -41 4 -81q0 -80 -16 -157l-2 -8q-34 -148 -128 -248t-245 -125q-47 -7 -90 -7q-97 0 -174 34 q9 -69 22 -117q9 -27 9 -53q0 -38 -19 -75q-32 -61 -98 -81q-27 -9 -53 -9q-38 0 -74 20q-62 32 -84 98q-37 116 -48 386zM92 772q0 -9 7 -15.5t16 -6.5t16.5 6.5t7.5 15.5q0 16 6 43q1 10 -5 18.5t-15 8.5q-9 3 -17 -3.5t-10 -15.5zM117 930q-2 -9 3.5 -17.5t14.5 -9.5 q9 -2 17.5 4t9.5 15q1 7 4 19t12.5 42.5t20.5 55t30.5 46t40.5 25.5q9 1 15 9.5t4 17.5q-1 9 -9.5 14.5t-17.5 3.5q-30 -5 -55.5 -30t-41.5 -57t-27.5 -63.5t-15.5 -52.5zM387 1087.5q-3 -9.5 2 -18.5q10 -20 31 -10q10 5 27.5 12t64.5 16q27 5 52 5q17 0 32 -2q9 -2 17.5 4 t9.5 16q1 9 -5.5 17t-15.5 10q-20 3 -40 3q-27 0 -56 -5q-50 -9 -78.5 -21t-28.5 -14q-9 -3 -12 -12.5zM449 737q0 -145 12 -231q12 -79 41 -124q25 -37 66 -37q8 0 16 1q36 6 61.5 38t36.5 79v6q8 41 8 86q0 22 -2 45q-6 69 -35 135q-47 105 -105 105h-3q-52 -6 -74 -31h-2 q-20 -24 -20 -70v-2zM559 270q0 -9 8 -15.5t17 -4.5q5 0 17 2t38 12.5t49.5 27t47 51.5t34.5 81q4 23 -18 29q-9 1 -17.5 -4.5t-11.5 -14.5q-9 -36 -27 -63.5t-37 -41t-37.5 -21.5t-29.5 -10l-12 -1q-10 -2 -16 -9.5t-5 -17.5z" />
<glyph unicode="q" horiz-adv-x="1044" d="M25 633q13 128 61 237q63 143 174 226q103 78 235 78h19q65 0 145 -29q42 36 115 39q25 0 39 -2l27 -6q117 -39 149 -230q21 -118 27 -248q9 -127 9 -271q0 -104 -5 -217q-11 -271 -47 -386q-22 -66 -83 -98q-37 -20 -75 -20q-26 0 -53 9q-66 20 -98 81q-20 37 -20 75 q0 26 9 53q15 54 23 117q-77 -34 -174 -34q-43 0 -90 7q-151 25 -245 125t-128 248l-2 8q-16 77 -16 157q0 40 4 81zM127 819q-3 -21 18 -28q11 -2 19.5 3.5t9.5 14.5q4 16 16 41q8 24 -12 31q-9 4 -18.5 0.5t-12.5 -11.5zM197 947.5q2 -9.5 10 -15.5t17.5 -4t15.5 10 q50 69 108 102q65 35 129 35q9 0 16 8t7 17t-7 15.5t-16 6.5q-82 0 -153 -41q-70 -43 -123 -116q-6 -8 -4 -17.5zM358 600q-2 -21 -2 -41q0 -45 9 -90v-6q11 -47 36.5 -79t61.5 -38q8 -1 16 -1q41 0 66 37q29 45 41 124q12 91 12 191v40v2q0 50 -20 70h-3q-22 25 -73 31h-3 q-59 0 -106 -105q-29 -66 -35 -135zM416 272q-1 -10 5 -18t15 -8q7 -1 19.5 -2t47 5t64 21t61.5 52.5t50 93.5q3 9 -1 18t-13 12t-18.5 -1t-10.5 -13q-12 -37 -30.5 -64.5t-40 -42t-40 -23t-39 -10.5t-27.5 -2t-15 1h-1q-9 1 -16.5 -4.5t-9.5 -14.5zM690 1096q10 -20 31 -13 q2 1 6.5 2.5t17 5t24 5t27 -0.5t27.5 -8q8 -4 17 -1.5t14 10.5q5 9 2.5 18t-10.5 14q-35 15 -67 15t-55 -9l-22 -8q-20 -7 -12 -30z" />
<glyph unicode="r" horiz-adv-x="874" d="M29 489q-8 148 -8 293.5t8 288.5q5 71 57 117q47 42 109 41h14q55 -4 96 -39.5t55 -87.5q132 69 326 69q69 0 118.5 -49t49.5 -118t-49.5 -118.5t-118.5 -49.5q-258 0 -258 -332q0 -53 10 -180q6 -84 6 -136q0 -38 -3 -59q-15 -91 -98 -116q-23 -8 -54 -11q-14 -2 -39 -2 q-153 12 -193 233q-19 112 -28 256zM78 856l4 -47q0 -9 6.5 -16t15.5 -7t17 7t8 16q-2 16 -4 49q0 9 -7.5 16t-17.5 7q-9 0 -15.5 -8t-6.5 -17zM79 984l1 -17q0 -9 7.5 -15.5t16.5 -5.5q23 3 23 27q-1 5 -1 14t2 34t8.5 46t22.5 44t40 34q9 4 12 14t-2 17q-10 20 -31 12 q-32 -15 -54 -43.5t-30.5 -58t-12 -57t-2.5 -45.5zM351 1046.5q-1 -10.5 5 -18.5q14 -17 33 -2q40 32 103 48.5t106 17.5h43q9 -2 17 5t8 17q0 9 -7 16t-16 9h-20t-49.5 -3.5t-70 -10.5t-74 -23t-69.5 -39q-8 -6 -9 -16.5z" />
<glyph unicode="s" horiz-adv-x="878" d="M23 860q9 82 57 154q44 69 119 116q111 74 246 74q30 0 61 -4h8q104 -11 188 -57q75 -42 123 -107q34 -45 34 -99q0 -13 -2 -25q-9 -68 -64 -109q-45 -35 -100 -35q-13 0 -25 2q-70 10 -111 66q-8 8 -16 12q-21 12 -68 18h-4q-21 2 -37 2q-50 0 -66 -18q-4 -4 -4 -9 q0 -22 74 -57q6 -3 28.5 -11.5t33.5 -14.5q45 -20 68 -30t63 -31t62.5 -36.5t53 -40.5t48 -49.5t33 -58t22.5 -70.5q6 -36 6 -70q0 -113 -66 -204q-67 -94 -188 -137q-84 -31 -171 -31q-21 0 -42 2h-8q-91 8 -171.5 47t-133.5 105q-36 46 -36 102q0 10 1 22q8 68 63 111 q46 36 102 36q11 1 22 -1q69 -8 112 -64q17 -21 68 -24h4q12 -1 23 -1q51 0 75 16q10 6 10 14q0 20 -65 47q-16 6 -50 21t-41 18q-75 32 -116 52t-93 59t-81 85q-52 80 -52 170q0 21 3 43zM80.5 243l3.5 -21v-1q3 -9 11.5 -14t17.5 -2q21 4 18 28q-1 4 -2 10t0.5 22 t8.5 29.5t26.5 27t50.5 18.5q9 1 14.5 9.5t3.5 17.5q-1 10 -9 16t-17 4q-43 -7 -71.5 -26.5t-39 -38t-14 -44.5t-2 -35zM135 989q-11 -19 6 -33q8 -6 17.5 -4.5t15.5 9.5q0 2 12.5 16.5t39.5 37t62 43t87 33.5q40 10 82 10q13 0 26 -1q9 0 17 6.5t8 15.5q2 9 -5.5 17 t-17.5 8q-13 1 -27 1q-48 0 -94 -12q-59 -14 -99 -37t-70.5 -48.5t-45 -42.5t-14.5 -19zM467 272q0 -9 6.5 -16.5t15.5 -7.5h6t15.5 0.5t22 2.5t26 6t26 11t23 18t17 26.5t8 36.5t-3.5 48q-1 9 -9.5 15t-17.5 4q-10 -1 -15.5 -9.5t-2.5 -19.5q7 -33 -4 -54.5t-33 -28.5 t-33.5 -8t-21 -1t-16.5 -7t-9 -16z" />
<glyph unicode="t" horiz-adv-x="909" d="M25 895q-3 18 -3 34q0 49 28 93q38 58 106 72l12 2q11 1 34 4t48 6v209q0 70 49.5 119t118.5 49q71 0 120.5 -49t49.5 -119v-199q75 -3 162 -16q69 -12 109 -70q31 -44 31 -94q0 -15 -3 -31q-12 -69 -69 -109q-44 -31 -95 -31q-15 0 -31 3q-53 9 -104 12v-248 q0 -88 45 -149q29 -40 78 -49q69 -10 111 -66q34 -46 34 -101q0 -12 -2 -24q-10 -69 -66 -111q-45 -33 -98 -32q-14 0 -28 2q-186 28 -300 182q-55 75 -83.5 169.5t-28.5 178.5v236q-8 -1 -15 -2t-10 -1.5t-4 -0.5q-17 -3 -34 -3q-49 0 -91 28q-58 38 -71 106zM92 979 q17 -17 35 -2q7 6 19 15q12 8 48 22q27 10 53 11q8 0 15 -1q10 0 17.5 6.5t7.5 16.5q1 9 -5.5 16.5t-15.5 7.5q-9 1 -17 1q-33 0 -67 -12q-43 -15 -66 -32l-22 -16q-16 -16 -2 -33zM290 1274l1 -19q3 -22 26 -22q9 2 15.5 8.5t5.5 15.5q0 136 91 136h3q9 0 16 6.5t7 15.5 q2 9 -5.5 17t-17.5 8h-4q-40 0 -70 -18t-43 -45.5t-19 -55t-6 -47.5zM303 629q9 -153 35 -248q22 -98 82 -170q14 -17 33 -2q8 6 9 15.5t-5 17.5q-50 59 -74 149q-24 95 -33 240q0 11 -7 17t-17 5q-9 0 -16 -7.5t-7 -16.5zM482.5 157.5q1.5 -10.5 9.5 -16.5l18 -12 q12 -8 20 -12q8 -6 17.5 -4t15.5 10q4 8 2 17.5t-10 15.5l-16 12q-5 2 -19 12q-8 6 -17.5 5t-15.5 -9t-4.5 -18.5z" />
<glyph unicode="u" horiz-adv-x="1064" d="M33 471q-14 94 -14 202q0 168 34 367q10 69 66 111q46 35 101 35q12 0 24 -2q68 -10 110 -66q34 -46 35 -101q0 -12 -2 -24q-29 -195 -29 -335q0 -78 9 -140q10 -80 40 -130t82 -50q142 0 142 299q0 72 -8 190q-5 78 -5 131.5t5 81.5q18 100 105 125q22 6 46 9q16 2 41 2 q75 -4 123.5 -64.5t69.5 -165.5v-6q19 -107 28 -256q8 -148 8 -294t-8 -290q-4 -70 -58 -116q-48 -42 -109 -41h-13q-48 3 -85.5 30.5t-57.5 69.5q-94 -43 -224 -43q-389 0 -456 471zM84 766q0 -10 6.5 -17.5t15.5 -7.5t17 7.5t8 17.5q0 16 2 43q1 11 -5.5 19t-16.5 10 q-9 0 -17 -7.5t-8 -17.5zM96 920q0 -9 7.5 -17t17.5 -8t17 9t5 18v16.5t5 38t14.5 49t31 40t52.5 21.5q9 1 14.5 9.5t5.5 17.5q-2 9 -9.5 15.5t-16.5 5.5q-43 -4 -73.5 -28t-43.5 -55t-20 -61t-7 -51v-20zM479 244q2 -9 9 -17t16 -8q4 0 10.5 0.5t26.5 5t38.5 10.5 t41.5 19.5t40.5 30.5t31.5 45t18 61q3 26 -21 29q-9 1 -15.5 -5.5t-8.5 -15.5q-4 -35 -23 -61.5t-42 -39.5t-45.5 -21t-37.5 -9l-16 -2q-9 0 -16 -6.5t-7 -15.5zM655 944q0 -10 8 -17t17 -7t15.5 7t6.5 17q0 5 0.5 14t6.5 32.5t16.5 41.5t33.5 35t54 20q10 2 16 9.5t5 17.5 q-4 21 -27 21q-43 -5 -74 -26.5t-45.5 -48.5t-22.5 -53.5t-9 -44.5z" />
<glyph unicode="v" horiz-adv-x="1011" d="M20 909q0 52 11 131q11 68 67 109q45 33 98 33q13 0 27 -2q69 -12 109 -68q32 -45 32 -98q0 -13 -2 -27q-6 -27 -6 -78q0 -190 72 -409q46 -133 64 -160q17 17 67 141q44 110 70 251t26 272q0 70 49.5 118.5t118.5 48.5q71 0 119.5 -48.5t48.5 -118.5q0 -161 -32 -335.5 t-89 -312.5q-66 -165 -164 -260.5t-221 -95.5q-9 0 -41 4q-108 18 -192.5 122t-140.5 265q-42 124 -66.5 263t-24.5 255zM74 948l2 -18q2 -9 9.5 -15.5t16.5 -5.5q9 0 15.5 8t5.5 17q0 49 3 66q14 81 73 100q10 1 14.5 10t1.5 18q-7 21 -29 17q-37 -11 -61.5 -37t-34 -55.5 t-13.5 -57.5t-3 -47zM76 838l2 -45q0 -11 7 -18t17 -7q9 0 17 7.5t8 17.5q0 16 -4 49q0 9 -8 15.5t-17 4.5q-9 0 -15.5 -7.5t-6.5 -16.5zM692 897q0 -10 7 -16.5t16 -6.5q10 0 17 7t7 16v18q0 83 25 129q27 47 84 50q9 0 15.5 7.5t6.5 16.5t-7.5 16.5t-16.5 6.5 q-85 -3 -123 -72q-31 -59 -31 -155v-17z" />
<glyph unicode="w" horiz-adv-x="1648" d="M20 909q0 52 11 131q11 68 67 109q45 33 98 33q13 0 27 -2q69 -10 109 -67q32 -45 32 -97q0 -14 -2 -29q-4 -18 -4 -78q0 -199 72 -409q48 -140 64 -160q15 18 65 141q44 110 70 251t26 272q0 70 49.5 118.5t120.5 48.5q69 0 118.5 -48.5t49.5 -118.5q0 -130 26.5 -271 t70.5 -252q50 -124 67 -141q14 21 62 160q71 207 71 409q0 60 -4 78q-2 14 -2 27q0 52 32 98q40 56 109 68q14 2 27 2q54 0 98 -33q56 -41 68 -109q10 -72 10 -131q0 -116 -24.5 -255t-65.5 -263q-56 -160 -141.5 -264.5t-194.5 -122.5q-28 -4 -41 -4q-101 0 -186.5 67.5 t-149.5 188.5q-65 -121 -151 -188.5t-187 -67.5q-9 0 -41 4q-109 18 -194 122t-141 265q-42 124 -66.5 263t-24.5 255zM68 897q0 -10 7.5 -17.5t16.5 -7.5q10 0 17 7.5t6 17.5q0 107 22 150q19 49 76 49q9 0 16 7.5t7 16.5q-2 11 -9 17.5t-16 5.5q-83 -3 -119 -76 q-24 -55 -24 -170zM76 801l4 -45q0 -9 7.5 -16t16.5 -7t17 7t8 16q-2 18 -6 51q0 9 -8.5 15t-18.5 5q-9 -1 -14.5 -9t-5.5 -17zM715 1042q-10 -30 -10 -71q0 -45 12 -103q2 -9 10 -14t18 -2q9 1 15 9.5t4 17.5q-12 53 -12 93q0 32 8 56q16 52 71 66q9 2 14.5 10t2.5 18 q-2 9 -10.5 14.5t-18.5 2.5q-79 -17 -104 -97zM1348 1051q-10 -30 -10 -71q0 -45 12 -103q7 -22 28 -19q10 1 16 10.5t3 18.5q-12 52 -12 92q0 33 8 57q16 53 71 64q9 3 14.5 11t2.5 17q-1 10 -9.5 15.5t-19.5 3.5q-79 -20 -104 -96z" />
<glyph unicode="x" horiz-adv-x="1042" d="M20 1044q4 69 56 115q47 43 111 43q5 0 9 -1q70 -4 117 -54q139 -157 207 -242q83 103 209 242q45 51 115 54q5 0 10 1q63 0 111 -43q52 -45 56 -115v-12q0 -63 -42 -110q-94 -103 -246 -287q76 -101 142 -196t94 -140l28 -45q24 -41 24 -85q1 -21 -5 -42 q-16 -67 -76 -102q-41 -25 -86 -25q-20 0 -41 5q-67 17 -104 77q-66 108 -189 274q-55 -74 -102 -142.5t-66 -99.5l-20 -32q-34 -60 -102 -77q-21 -5 -42 -5q-45 0 -86 25q-60 35 -77 102q-6 22 -6 43q0 44 24 84l29 44q29 45 95 141t140 196q-114 143 -244 287 q-44 49 -44 113q1 4 1 9zM80 991q22 -56 63 -82l7 -4q22 -7 32 13q8 20 -12 30l-2 2q-28 17 -43 58q-7 22 -7 41t7 34l2 7q13 17 -6 32q-9 4 -18.5 2t-14.5 -10l-4 -8l-2 -2q-12 -28 -12 -57q0 -27 10 -56zM86 225q2 -9 10 -14q9 -4 18.5 -2t14.5 10q0 3 25 45.5t75.5 117 t102.5 136.5q15 19 -2 33q-16 13 -35 -2q-53 -64 -104.5 -140.5t-77 -120t-25.5 -46.5q-4 -8 -2 -17zM510 805q-11 -22 10 -33q9 -4 18.5 -1t12.5 11q11 14 27 41q11 19 -7 33q-22 11 -32 -6zM583.5 902q1.5 -11 8.5 -15q8 -6 18.5 -5t16.5 9q22 32 82 92q47 50 106 94 q18 14 4 35q-4 7 -15 8.5t-18 -4.5q-57 -43 -112 -98q-18 -19 -86 -98q-6 -7 -4.5 -18z" />
<glyph unicode="y" horiz-adv-x="1052" d="M23 729v6q2 76 16 205l8 64q4 70 57 115q48 41 109 41q7 0 14 -1q69 -6 115 -59q41 -48 41 -110v-11l-10 -78q-12 -109 -17 -180v-2q-1 -21 -1 -41q0 -233 98 -238h4q42 0 71 18q31 20 47 57.5t23 75.5t10 87q1 24 1 51t-0.5 57.5t-0.5 44.5q-3 39 -3 76q0 25 1 49 q4 57 18 99t53.5 67t106.5 29h9q166 0 206 -233q17 -109 23 -246q10 -156 10 -373q0 -292 -137 -449q-118 -136 -320 -157q-25 -2 -51 -2q-64 0 -133 14q-97 18 -174 64q-61 34 -81 101q-7 24 -7 48q0 40 21 78q34 61 101 80q25 8 49 8q41 0 79 -21q34 -21 82 -30 q30 -7 61 -7q10 0 21 1q67 7 100 43q21 28 35 71q-84 -36 -202 -36q-18 0 -36 1q-418 18 -418 558q0 32 1 65zM70 838q-4 -22 16 -29q11 -2 19.5 2.5t9.5 13.5q3 0 6 54q0 9 -7 16.5t-16 7.5t-16.5 -6.5t-7.5 -15.5zM82 971q-1 -9 5 -17t15 -10q9 -1 17 5.5t10 15.5 q4 46 33 75q28 24 65 27q11 0 18 7.5t7 17.5q-4 22 -27 22q-58 -3 -96 -41t-47 -102zM162 -33q-3 -21 18 -28q9 -3 17.5 2.5t11.5 15.5q0 1 0.5 2.5t2.5 6t5 9t8 10t11.5 10t16 8.5t20.5 5.5t25.5 0.5t31.5 -5q9 -3 17 2t11 14q4 23 -18 29q-31 7 -56 7q-11 0 -20 -2 q-32 -4 -51.5 -18t-31 -29.5t-15.5 -27.5zM438 379q-1 -9 5.5 -17t15.5 -10q43 0 68 7q110 32 161 169q7 21 -14 31q-9 3 -18.5 -1t-12.5 -13q-17 -45 -41 -76.5t-47 -44.5t-44 -19.5t-33 -6.5l-13 1q-9 1 -17 -5t-10 -15zM657 967q-1 -9 5.5 -17t15.5 -10q9 0 17.5 6 t9.5 15q4 45 34 75q27 27 66 27q9 0 15.5 7.5t6.5 16.5t-7.5 16t-16.5 7q-63 -3 -96 -41h-2q-40 -40 -48 -102z" />
<glyph unicode="z" horiz-adv-x="1067" d="M53 367q25 54 94.5 132t137 141t170.5 155q23 20 34 30l48 41q-169 0 -258 -14q-12 -2 -24 -2q-55 0 -101 36q-56 42 -64 111q-2 12 -2 24q0 55 35 101q42 56 110 64q85 11 223 15q36 1 71 0q102 0 204 -7q88 -9 152 -31q150 -57 150 -190q0 -11 -1 -23v-2 q-3 -44 -28 -86q-29 -46 -98 -112.5t-195 -176.5q-186 -165 -254 -231q4 -1 82 -6h26q147 0 269 31q24 7 46 7q42 0 81 -23q60 -35 79 -101q6 -23 6 -44q0 -44 -23 -84q-34 -60 -101 -79q-163 -44 -345 -44q-25 0 -51 1q-238 9 -383 78q-123 57 -123 164q0 56 33 125z M154 1024q-3 -9 2.5 -17.5t15.5 -11.5q9 -2 17.5 4t9.5 15q6 26 26 43.5t44 24t46.5 9t38.5 1.5l15 -2q9 0 17 5.5t9 14.5q0 24 -22 27q-8 1 -20.5 2t-47 -2.5t-62 -13t-54 -35.5t-35.5 -64zM210.5 497.5q-0.5 -10.5 6.5 -16.5q6 -7 16.5 -7.5t16.5 5.5l37 35q17 18 0 35 q-6 6 -15.5 6t-17.5 -6l-37 -35q-6 -6 -6.5 -16.5zM319 580q7 -7 17 -7.5t16 5.5l170 159l127 121q17 14 2 33q-6 7 -16.5 7.5t-16.5 -5.5l-129 -121l-167 -160q-18 -18 -3 -32zM784 301q7 -20 31 -16q32 8 56 5t41 -14.5t28 -24t16 -22.5l5 -10q3 -9 12 -12.5t18 0.5 q9 3 13 12.5t0 18.5q-1 3 -3.5 7.5t-10.5 18.5t-18.5 24.5t-27.5 24.5t-37 18.5t-47.5 7.5t-58.5 -9q-9 -1 -14 -10.5t-3 -18.5z" />
<glyph unicode="{" />
<glyph unicode="|" horiz-adv-x="686" d="M205 1604q30 -559 16 -1469v-4q-2 -53 34.5 -91.5t90.5 -39.5q53 -2 91.5 34.5t39.5 90.5v2q14 919 -14 1491q-3 53 -43 88.5t-92 32.5q-54 -1 -89.5 -41t-33.5 -94z" />
<glyph unicode="}" />
<glyph unicode="~" />
<glyph unicode="&#xa1;" />
<glyph unicode="&#xa2;" />
<glyph unicode="&#xa3;" />
<glyph unicode="&#xa4;" />
<glyph unicode="&#xa5;" />
<glyph unicode="&#xa6;" />
<glyph unicode="&#xa7;" />
<glyph unicode="&#xa9;" />
<glyph unicode="&#xab;" />
<glyph unicode="&#xac;" />
<glyph unicode="&#xad;" horiz-adv-x="1062" d="M82 594q3 -53 42 -86t93 -33h3q388 18 622 -4q53 -5 93 29t46 88q6 53 -27.5 94t-87.5 45q-252 22 -662 4h-3q-53 0 -87.5 -41t-31.5 -96z" />
<glyph unicode="&#xae;" />
<glyph unicode="&#xb0;" />
<glyph unicode="&#xb1;" />
<glyph unicode="&#xb6;" />
<glyph unicode="&#xb7;" />
<glyph unicode="&#xbb;" />
<glyph unicode="&#xbf;" />
<glyph unicode="&#xd7;" horiz-adv-x="792" d="M82.5 877q2.5 -54 42.5 -89q37 -32 88 -79l-94 -103q-35 -40 -32.5 -93.5t42.5 -88.5t93.5 -32.5t88.5 42.5q35 39 84 94q53 -57 76 -90q34 -41 86.5 -47.5t93.5 25.5q43 32 50 85.5t-27 94.5q-53 67 -96 113q58 54 81 71q43 34 50 87t-27 94q-32 41 -84.5 47.5 t-95.5 -25.5q-52 -40 -107 -92l-98 90q-40 35 -93.5 32.5t-88.5 -42.5t-32.5 -94z" />
<glyph unicode="&#xf7;" horiz-adv-x="937" d="M82 692q4 -54 45 -89t94 -30h3q305 20 487 -2q54 -6 95.5 26.5t47.5 86.5q7 52 -25.5 94.5t-85.5 48.5q-96 12 -231.5 13t-223.5 -4l-87 -5q-53 -4 -87.5 -45t-31.5 -94zM340 379l2 -43q3 -54 43 -89t94 -32q53 3 88 43t31 94l-2 43q-3 54 -43 89t-94 32q-53 -3 -88 -43 t-31 -94zM340 1059l2 -43q3 -54 43 -89t94 -32q53 3 88 43t31 94l-2 43q-3 54 -43 89t-94 32q-53 -5 -88 -44.5t-31 -92.5z" />
<glyph unicode="&#x2000;" horiz-adv-x="869" />
<glyph unicode="&#x2001;" horiz-adv-x="1739" />
<glyph unicode="&#x2002;" horiz-adv-x="869" />
<glyph unicode="&#x2003;" horiz-adv-x="1739" />
<glyph unicode="&#x2004;" horiz-adv-x="579" />
<glyph unicode="&#x2005;" horiz-adv-x="434" />
<glyph unicode="&#x2006;" horiz-adv-x="289" />
<glyph unicode="&#x2007;" horiz-adv-x="289" />
<glyph unicode="&#x2008;" horiz-adv-x="217" />
<glyph unicode="&#x2009;" horiz-adv-x="347" />
<glyph unicode="&#x200a;" horiz-adv-x="96" />
<glyph unicode="&#x2010;" horiz-adv-x="1062" d="M82 594q3 -53 42 -86t93 -33h3q388 18 622 -4q53 -5 93 29t46 88q6 53 -27.5 94t-87.5 45q-252 22 -662 4h-3q-53 0 -87.5 -41t-31.5 -96z" />
<glyph unicode="&#x2011;" horiz-adv-x="1062" d="M82 594q3 -53 42 -86t93 -33h3q388 18 622 -4q53 -5 93 29t46 88q6 53 -27.5 94t-87.5 45q-252 22 -662 4h-3q-53 0 -87.5 -41t-31.5 -96z" />
<glyph unicode="&#x2012;" horiz-adv-x="1062" d="M82 594q3 -53 42 -86t93 -33h3q388 18 622 -4q53 -5 93 29t46 88q6 53 -27.5 94t-87.5 45q-252 22 -662 4h-3q-53 0 -87.5 -41t-31.5 -96z" />
<glyph unicode="&#x2013;" />
<glyph unicode="&#x2014;" />
<glyph unicode="&#x2018;" horiz-adv-x="409" d="M63 1516q7 -36 46 -121l4 -11q17 -35 54.5 -48.5t74.5 3.5q35 17 48.5 55.5t-3.5 73.5l-4 9q-27 56 -29 69q-1 4 1 -1q7 -19 11 -19q38 6 62 38t18 70q-6 40 -38.5 63.5t-71.5 16.5q-109 -18 -146.5 -68t-26.5 -130z" />
<glyph unicode="&#x2019;" horiz-adv-x="409" d="M63 1634q-6 -38 18 -70t62 -38q3 -1 10 14q0 2 1 4l2 2q-1 -6 -5.5 -16.5t-12 -26t-11.5 -26.5l-4 -9q-17 -35 -3.5 -73.5t48.5 -55.5q37 -17 74.5 -3.5t54.5 48.5l4 11q38 82 45 121q11 80 -26 130t-146 68q-40 7 -72.5 -16.5t-38.5 -63.5z" />
<glyph unicode="&#x201a;" d="M43 305q-6 -40 18 -72t64 -38q1 -2 10 20q-1 -7 -26 -63l-7 -13q-17 -35 -3.5 -73.5t48.5 -55.5q35 -18 73.5 -5.5t55.5 48.5l7 17q38 77 43 114q13 80 -24.5 131.5t-147.5 69.5q-40 6 -72.5 -17t-38.5 -63z" />
<glyph unicode="&#x201c;" horiz-adv-x="645" d="M66 1516q7 -39 45 -121l4 -9q17 -37 54.5 -50.5t74.5 5.5q35 17 48.5 54.5t-3.5 72.5l-4 11q-29 64 -29 67q-1 5 1 0q8 -19 11 -20q15 3 29 10l4 -20q6 -40 43 -121l6 -9q17 -37 54.5 -50.5t72.5 5.5q37 17 49.5 54.5t-4.5 72.5l-4 11q-24 54 -26 67q4 -14 10 -20 q40 6 63 38t17 72q-6 38 -38.5 62t-72.5 18q-90 -15 -131 -53q-14 28 -42 42.5t-60 10.5q-109 -18 -147 -69t-25 -131z" />
<glyph unicode="&#x201d;" horiz-adv-x="645" d="M63 1636q-6 -39 17.5 -71.5t62.5 -38.5q4 -1 13 20q-1 -4 -27 -63l-6 -13q-17 -35 -3.5 -73.5t48.5 -55.5q35 -18 73.5 -5.5t55.5 48.5l6 17q37 77 43 115l2 20q19 -8 31 -10q4 0 10 21v-1q-2 -14 -24 -63l-7 -13q-18 -35 -5.5 -73.5t48.5 -55.5q37 -18 74.5 -5.5 t54.5 48.5l9 17q37 84 41 115q13 80 -24.5 131t-147.5 69q-31 5 -59.5 -10t-41.5 -43q-45 39 -133 53q-40 6 -72.5 -17t-38.5 -63z" />
<glyph unicode="&#x201e;" d="M43 305q-6 -40 18 -72t64 -38q1 -2 10 20q-1 -7 -26 -63l-7 -13q-17 -35 -3.5 -73.5t48.5 -55.5q35 -18 73.5 -5.5t55.5 48.5l7 17q38 77 43 114q13 80 -24.5 131.5t-147.5 69.5q-40 6 -72.5 -17t-38.5 -63zM43 305q-6 -40 18 -72t64 -38q1 -2 10 20q-1 -7 -26 -63 l-7 -13q-17 -35 -3.5 -73.5t48.5 -55.5q35 -18 73.5 -5.5t55.5 48.5l7 17q38 77 43 114q13 80 -24.5 131.5t-147.5 69.5q-40 6 -72.5 -17t-38.5 -63z" />
<glyph unicode="&#x2022;" horiz-adv-x="735" d="M123 668q-6 86 51 151.5t145 71.5q88 5 154 -53t72 -146l2 -57q6 -86 -51.5 -151.5t-145.5 -71.5q-89 -4 -154 52.5t-71 143.5zM160 645q1 -13 12 -22t23 -9q14 2 22.5 12.5t5.5 22.5q0 5 0.5 14t6.5 32.5t17.5 42t37 34.5t61.5 19q12 2 21.5 11.5t9.5 22.5q-1 13 -12 22 t-23 7q-53 -4 -91.5 -27.5t-55 -53.5t-25.5 -59t-10 -49v-20z" />
<glyph unicode="&#x2026;" d="M41 164l2 -43q5 -54 44 -89t93 -32t89 43t32 94l-4 43q-3 53 -43 88.5t-92 32.5q-54 -3 -89 -43t-32 -94zM41 164l2 -43q5 -54 44 -89t93 -32t89 43t32 94l-4 43q-3 53 -43 88.5t-92 32.5q-54 -3 -89 -43t-32 -94zM41 164l2 -43q5 -54 44 -89t93 -32t89 43t32 94l-4 43 q-3 53 -43 88.5t-92 32.5q-54 -3 -89 -43t-32 -94z" />
<glyph unicode="&#x202f;" horiz-adv-x="347" />
<glyph unicode="&#x2039;" />
<glyph unicode="&#x203a;" />
<glyph unicode="&#x205f;" horiz-adv-x="434" />
<glyph unicode="&#x20ac;" />
<glyph unicode="&#x2122;" horiz-adv-x="2344" d="M20 1270q0 69 49.5 117.5t118.5 48.5l320 -2q28 4 45 2l10 -2l299 -2q69 0 117.5 -49.5t48.5 -118.5t-49.5 -117.5t-118.5 -48.5h-170q-24 -391 6 -921v-3q3 -69 -43.5 -120t-115.5 -54t-120.5 44.5t-54.5 117.5q-1 21 -3 58t-6 148t-6 218.5t-0.5 250.5t7.5 263l-168 2 q-69 0 -117.5 49.5t-48.5 118.5zM70 1249q0 -10 7 -16t17 -6q9 0 16 7.5t7 16.5q2 1 0 11.5t3.5 27t13 32.5t27.5 26.5t48 9.5q10 -1 17 5t7 17q1 9 -5 16t-17 9q-43 2 -73 -13.5t-42.5 -39t-19 -47t-6.5 -39.5v-17zM406 764q-3 -172 6 -293q3 -22 26 -22q9 2 15.5 8.5 t5.5 15.5q-9 122 -6 289q0 151 12 289q0 9 -6.5 16.5t-16.5 7.5q-9 1 -15.5 -5t-8.5 -15q-12 -141 -12 -291zM420 379l2 -74q2 -9 9.5 -15t17.5 -5q23 4 20 26l-2 66q1 9 -5.5 16.5t-15.5 7.5q-23 0 -26 -22zM966.5 380.5q-2.5 126.5 5 257t35.5 320t76 367.5q11 38 37.5 68 t63.5 45q64 26 128.5 -2t90.5 -93l242 -618l243 614q14 38 44 66.5t69 38.5q67 19 127.5 -16t79.5 -103q48 -178 76.5 -364.5t34.5 -325.5t5.5 -252t-6.5 -172l-6 -59q-8 -69 -61.5 -113.5t-122.5 -38.5q-69 8 -113 61.5t-37 122.5v2q24 205 2 473l-178 -452v-2l-2 -2v-2v-2 l-2 -4l-2 -2v-3v-2h-2l-2 -4v-2l-2 -2l-2 -2v-2l-2 -2l-2 -2v-2l-2 -2l-2 -4l-2 -2l-2 -2l-2 -2l-2 -2v-2l-3 -2l-4 -2l-2 -5l-2 -2h-2l-2 -2v-2l-4 -2l-2 -2l-4 -2v-2h-2l-2 -2l-2 -2l-4 -2l-2 -2h-2l-2 -2l-2 -2h-3l-2 -2h-2l-2 -2h-2l-2 -2h-2h-2l-2 -2l-4 -2h-4l-4 -3 l-4 -2h-4l-9 -2l-2 -2h-2h-2h-2h-2h-2l-2 -2h-2h-2h-4h-2h-2h-19h-2h-2h-4h-2h-2l-2 2h-2h-2h-2h-2h-2l-2 2l-8 2h-5l-4 2l-4 3h-4l-4 2l-2 2h-2h-2l-2 2h-2l-2 2h-2l-2 2h-2l-2 2l-2 2h-3l-2 2h-2l-2 2l-2 2l-2 2h-2v2l-4 2l-2 2l-4 2v2l-2 2h-2l-2 2l-2 5l-4 2l-2 2v2 l-2 2l-2 2l-3 2l-2 2l-2 4l-2 2v2l-2 2l-2 2v2l-2 2l-2 2v2l-2 4h-2v2v3l-2 2l-2 4v2v2l-2 2v2l-178 452q-22 -268 2 -473v-2q7 -69 -37 -122.5t-113 -61.5q-69 -6 -122.5 38.5t-61.5 113.5q-3 22 -6.5 62t-6 166.5zM1030 592q0 -9 7 -16t16 -7q10 0 17 7t7 16q-2 29 4 80 q0 23 -20 26q-10 1 -18.5 -5t-8.5 -15zM1040 750q0 -10 7 -17.5t16 -9.5q10 0 17 6t7 16q3 36 10 95.5t36.5 201t68.5 234.5q3 7 -0.5 16.5t-11.5 14.5q-9 3 -18.5 -1t-14.5 -12q-40 -96 -69.5 -232t-38.5 -224zM1874 1180q-2 -11 3.5 -19.5t14.5 -9.5q9 -2 17.5 4t9.5 16 l5 18q4 18 13.5 43.5t23.5 51t37.5 43.5t51.5 19q9 0 16 7.5t7 16.5t-8 16t-17 7q-38 -1 -70 -23.5t-50.5 -53.5t-31.5 -62t-18 -52z" />
<glyph unicode="&#x25fc;" horiz-adv-x="1198" d="M0 0v1198h1198v-1198h-1198z" />
</font>
</defs>
</svg>
